<?xml version="1.0" encoding="UTF-8" standalone="no"?>
<!DOCTYPE svg PUBLIC "-//W3C//DTD SVG 1.1//EN" "http://www.w3.org/Graphics/SVG/1.1/DTD/svg11.dtd">
<svg xmlns="http://www.w3.org/2000/svg" version="1.1" viewBox="0 0 1280 720" width="1280.0pt" height="720.0pt">
<path d="M -5.0725,-3.30313 L -2.8425,-3.30313 C -2.4425,0.836875 2.9875,1.02687 -1.3725,-3.30313 L 1.6475,-3.30313 C 2.4175,-1.37313 3.3075,0.256875 4.6775,1.82687 C 7.4475,5.57688 2.7975,2.66687 1.0775,2.43688 C -1.8525,1.05688 -2.6325,-0.493125 -5.0725,2.69687 L -5.0725,-3.30313 Z" fill="#66764f"/>
<path d="M 126.46,1.906 L 127.93,1.906 C 132.29,6.236 126.86,6.046 126.46,1.906 Z" fill="#bbd399"/>
<path d="M 247.795,5.00412 L 263.245,5.00412 C 263.185,6.04412 263.135,7.07412 263.075,8.11412 C 260.155,8.94412 259.455,7.78412 257.245,6.20412 C 257.385,7.55412 257.565,8.89412 257.745,10.2241 C 255.435,7.78412 249.935,3.13412 250.825,10.1341 C 249.455,8.56412 248.565,6.93412 247.795,5.00412 Z" fill="#a2b393"/>
<path d="M 384.575,2.21759 L 389.665,2.21759 C 386.225,4.00759 388.505,6.73759 386.955,9.66759 C 385.305,12.4776 389.735,12.4776 388.535,15.3476 C 386.515,16.1976 384.435,16.7776 382.325,17.3476 C 381.315,16.7176 380.305,16.0776 379.335,15.3776 C 381.355,15.3176 383.375,15.2076 385.385,14.9976 C 383.465,13.3876 381.705,12.4376 379.265,11.7676 C 379.635,10.9676 380.005,10.1676 380.395,9.36759 C 385.765,11.0976 383.965,9.74759 384.405,5.32759 C 384.465,4.28759 384.515,3.25759 384.575,2.21759 Z" fill="#91b13f"/>
<path d="M 510.902,6.59952 L 514.792,6.59952 C 515.152,7.67952 515.512,8.76952 515.852,9.85952 C 508.182,11.0695 517.352,13.4295 515.722,17.5995 C 516.022,19.9995 514.372,20.4995 512.872,21.8695 C 511.692,21.8195 510.572,21.5995 509.412,21.3995 L 509.772,19.7295 C 510.972,16.8595 506.542,16.8595 508.192,14.0495 C 509.742,11.1195 507.462,8.38952 510.902,6.59952 Z" fill="#e7ece2"/>
<path d="M 638.262,16.5963 L 643.322,16.5963 C 642.012,17.6562 641.212,20.2563 639.322,19.8563 C 638.982,18.7662 638.622,17.6763 638.262,16.5963 Z" fill="#76a331"/>
<path d="M 770.093,14.6892 L 772.223,14.6892 C 771.723,16.0092 769.493,17.0792 771.433,18.1392 C 774.863,20.8392 769.593,19.8792 768.163,19.9192 C 769.133,22.0192 768.923,23.4892 768.623,25.6892 C 767.403,27.2592 766.553,28.9092 764.863,30.0492 L 763.113,29.9592 C 764.613,28.5892 766.263,28.0892 765.963,25.6892 C 767.593,21.5192 758.423,19.1592 766.093,17.9492 C 767.983,18.3492 768.783,15.7492 770.093,14.6892 Z" fill="#a9c287"/>
<path d="M 895.091,20.213 L 902.171,20.213 C 900.481,21.493 898.781,22.723 897.001,23.873 C 898.181,24.503 899.411,24.913 900.621,25.483 C 899.561,26.753 898.321,27.763 897.041,28.803 C 895.141,29.473 893.351,30.403 891.491,31.213 C 891.791,29.013 892.001,27.543 891.031,25.443 C 892.461,25.403 897.731,26.363 894.301,23.663 C 892.361,22.603 894.591,21.533 895.091,20.213 Z" fill="#66911d"/>
<path d="M 1015.59,19.6583 L 1017.21,19.6583 C 1016.52,21.2383 1015.84,22.8783 1015.4,24.5483 C 1017.36,26.3983 1019.58,25.7083 1021.71,24.6083 C 1024.38,24.1983 1021.27,21.1083 1021.06,19.6583 L 1053.65,19.6583 C 1051.51,21.6183 1049.28,23.4683 1047.03,25.2983 C 1045.54,23.9783 1045.46,23.5883 1043.47,24.4283 C 1040.68,22.1083 1039.66,21.2683 1036.02,22.6483 C 1032.65,23.7283 1033.48,23.3983 1034.61,26.2283 C 1029.29,28.4083 1033.86,29.7983 1036.27,31.5483 C 1034.86,32.5383 1033.38,33.5183 1032.07,34.6383 C 1032.89,36.2583 1036.86,37.6883 1032.93,38.1483 C 1031.45,36.6083 1030.98,34.7583 1030.39,32.7783 C 1028.52,32.8183 1027.15,34.9783 1025.35,35.3483 C 1023.79,34.2683 1022.68,32.9083 1021.2,31.6883 C 1019.33,33.1483 1017.77,34.7383 1015.5,35.5983 C 1015.07,34.3583 1015.56,31.3483 1014.31,30.7383 C 1014.13,32.9383 1014.11,35.1683 1014.04,37.3783 C 1013.16,37.5083 1012.29,37.6383 1011.42,37.7683 C 1013.28,33.2283 1009.98,35.8383 1007.31,35.3283 C 1006.19,31.5383 1014.17,32.1883 1010.46,28.2483 C 1011.74,27.2083 1012.98,26.1983 1014.04,24.9283 C 1012.83,24.3583 1011.6,23.9483 1010.42,23.3183 C 1012.2,22.1683 1013.9,20.9383 1015.59,19.6583 Z" fill="#99c818"/>
<path d="M 1150.34,29.3618 L 1154.19,29.3618 C 1154.4,30.8118 1157.51,33.9018 1154.84,34.3118 C 1152.71,35.4118 1150.49,36.1018 1148.53,34.2518 C 1148.97,32.5818 1149.65,30.9418 1150.34,29.3618 Z" fill="#64930a"/>
<path d="M 1278.38,30.1248 L 1294.39,30.1248 C 1292.65,30.9548 1290.96,31.5148 1289.55,32.8648 C 1286.85,35.2648 1282.37,34.5348 1281.69,38.7148 C 1284.62,41.6148 1283.72,40.5848 1280.47,41.1148 C 1279.75,40.4048 1279.05,39.6948 1278.36,38.9648 L 1277.89,38.2248 C 1282.09,38.2448 1277.29,36.2048 1276.11,35.4348 C 1274.61,36.1948 1273.31,37.1648 1271.97,38.1848 C 1271.87,37.3848 1271.79,36.5748 1271.76,35.7648 C 1274.01,33.9348 1276.24,32.0848 1278.38,30.1248 Z" fill="#70960f"/>
<path d="M 1393.58,32.7267 L 1400.35,32.7267 C 1400.39,35.5567 1404.41,35.5567 1402.13,32.7267 L 1412.04,32.7267 C 1413.92,35.1967 1414.5,39.3267 1410.07,38.7867 C 1405.14,39.6667 1407.23,35.4267 1403.21,35.7867 C 1403.56,45.4867 1410.67,38.4667 1417.19,41.7267 C 1424.53,42.2267 1424.87,40.7967 1425.43,33.9667 C 1430.16,34.2167 1427.59,42.9267 1433.29,37.5367 C 1433.94,38.0367 1434.56,38.5567 1435.17,39.0967 C 1428.79,43.9367 1419.37,43.2767 1412.07,47.0967 C 1411.51,45.3167 1411.74,41.3867 1408.76,43.3667 C 1405.3,45.0867 1404.03,48.2167 1399.7,47.3567 C 1399.38,45.3667 1398.99,44.9467 1397.41,43.7167 C 1399.31,44.3667 1401.06,43.0267 1399.39,41.2867 C 1398.02,39.3067 1391.21,41.2267 1388.81,40.9467 C 1388.38,39.2067 1388.72,37.2467 1388.74,35.4667 C 1390.15,34.1167 1391.84,33.5567 1393.58,32.7267 Z" fill="#92ba18"/>
<path d="M 1534.82,42.068 L 1536.6,42.068 C 1538.88,44.898 1534.86,44.898 1534.82,42.068 Z" fill="#dce787"/>
<path d="M 1663.72,42.2547 L 1670.33,42.2547 C 1669.21,43.7147 1667.99,45.0947 1666.85,46.5347 C 1667.37,48.1547 1668.17,49.7147 1668.87,51.2547 C 1662.35,47.9947 1655.24,55.0147 1654.89,45.3147 C 1658.91,44.9547 1656.82,49.1947 1661.75,48.3147 C 1666.18,48.8547 1665.6,44.7247 1663.72,42.2547 Z" fill="#c6da97"/>
<path d="M 1791.28,48.1891 L 1792.72,48.1891 C 1794.21,49.3091 1796.53,49.4891 1795.47,51.8991 C 1793.15,53.4291 1790.43,52.5591 1787.8,52.4691 C 1788.94,51.0291 1790.16,49.6491 1791.28,48.1891 Z" fill="#9ac712"/>
<path d="M 1916.77,49.8725 L 1924.68,49.8725 C 1926.44,51.4825 1928.17,53.1225 1929.97,54.6825 C 1924.27,60.0725 1926.84,51.3625 1922.11,51.1125 C 1921.55,57.9425 1921.21,59.3725 1913.87,58.8725 C 1913.17,57.3325 1912.37,55.7725 1911.85,54.1525 C 1914.48,54.2425 1917.2,55.1125 1919.52,53.5825 C 1920.58,51.1725 1918.26,50.9925 1916.77,49.8725 Z" fill="#739114"/>
<path d="M 2019.45,38.3312 L 2030.42,38.3312 L 2031.37,39.4112 C 2029.07,43.1912 2035.46,45.4612 2037.57,47.6312 C 2041.18,48.8112 2044.77,50.3912 2048.41,51.4512 C 2049.4,51.7412 2050.38,52.0412 2051.36,52.3412 C 2050.22,58.8112 2051.66,57.1012 2057.12,58.5512 C 2053.57,62.3512 2058.51,59.7912 2060.52,62.2312 C 2063.93,65.5112 2065.21,68.3012 2070.39,68.4612 C 2073.42,71.2512 2074.62,73.5512 2078.5,75.5312 C 2077.35,81.1912 2075.22,76.8212 2073.14,74.7212 C 2068.85,75.9612 2066.86,70.8812 2067.45,77.5912 C 2066.61,76.1712 2065.74,74.6712 2064.68,73.4112 C 2062.79,71.2312 2060.79,69.1612 2058.72,67.1612 C 2055.9,64.2012 2052.59,62.2812 2049.11,60.2112 C 2047.16,58.6712 2045,57.9312 2042.64,57.2912 C 2042.05,56.9812 2041.47,56.6712 2040.88,56.3612 C 2039.52,55.5512 2038.14,54.7812 2036.72,54.0612 C 2033.9,51.2112 2031.3,48.2712 2028.03,45.9112 C 2027.58,45.4812 2027.11,45.0812 2026.62,44.7012 C 2026.01,44.1612 2025.39,43.6412 2024.74,43.1412 C 2022.94,41.5812 2021.21,39.9412 2019.45,38.3312 Z" fill="#1c1d0b"/>
<path d="M 2168.26,60.2722 L 2181.3,60.2722 C 2181.7,60.8922 2182.11,61.5022 2182.52,62.1222 C 2176.28,59.2522 2174.34,64.8622 2169.21,61.3522 L 2168.26,60.2722 Z" fill="#91a34e"/>
<path d="M 2299.87,63.2682 L 2311.32,63.2682 C 2309.39,64.3482 2307.7,65.4682 2306.38,67.2882 C 2304.62,66.5582 2302.86,65.8282 2301.09,65.1182 C 2300.68,64.4982 2300.27,63.8882 2299.87,63.2682 Z" fill="#c7d574"/>
<path d="M 2430.6,66.3792 L 2436.3,66.3792 C 2437.01,67.2292 2437.7,68.0892 2438.37,68.9692 C 2434.52,70.2792 2430.69,69.4792 2426.92,71.1792 L 2425.66,70.3992 C 2426.98,68.5792 2428.67,67.4592 2430.6,66.3792 Z" fill="#9fbd28"/>
<path d="M -9.219,67.7775 L -1.479,67.7775 C -1.529,71.8975 2.611,71.8275 5.651,72.6675 C 5.051,69.7675 1.991,67.9575 7.031,69.4575 C 7.321,71.7075 7.331,74.0275 7.111,76.2775 C 4.321,76.3075 2.821,77.4475 0.641,79.0375 C -2.279,76.4075 -4.679,73.3975 -7.149,70.3675 C -7.819,69.4875 -8.509,68.6275 -9.219,67.7775 Z" fill="#4b522a"/>
<path d="M 123.776,73.7211 L 132.116,73.7211 L 132.286,75.4011 C 127.246,73.9011 130.306,75.7111 130.906,78.6111 C 127.866,77.7711 123.726,77.8411 123.776,73.7211 Z" fill="#879558"/>
<path d="M 264.551,56.8673 L 271.481,56.8673 C 270.981,58.2573 270.701,59.6673 270.481,61.1273 C 270.171,61.7673 269.861,62.4173 269.541,63.0573 C 266.901,63.6573 267.631,64.7573 268.191,66.7873 C 266.961,69.4273 266.781,70.1173 267.831,72.8173 C 267.531,76.6273 262.811,78.0573 266.151,80.9173 C 261.331,84.6473 265.131,87.1173 268.411,89.7073 C 269.891,93.6673 270.391,97.5973 273.311,100.867 C 273.141,102.947 278.911,107.537 275.971,108.267 C 272.361,107.047 272.351,105.397 272.691,110.227 C 271.691,111.587 270.541,112.557 270.141,114.237 C 269.621,114.467 269.091,114.667 268.551,114.857 L 267.731,113.767 C 267.321,109.817 264.031,112.897 267.081,108.847 C 262.381,104.917 265.111,100.407 261.921,96.3773 C 259.991,92.6473 258.341,95.6473 255.311,96.1273 C 254.721,89.4173 256.711,94.4973 261.001,93.2573 C 263.081,95.3573 265.211,99.7273 266.361,94.0673 C 262.481,92.0873 261.281,89.7873 258.251,86.9973 C 253.071,86.8373 251.791,84.0473 248.381,80.7673 C 249.401,80.4173 250.421,80.0673 251.431,79.7273 L 253.071,79.9273 C 254.751,81.5173 255.621,83.3273 258.311,82.7573 C 258.501,80.3673 256.301,79.6773 254.721,78.4273 C 252.041,75.1573 250.161,70.0573 245.471,69.5873 C 244.531,69.2973 243.591,69.0173 242.631,68.7673 C 244.391,65.4573 236.821,63.4173 234.811,61.9373 C 232.701,60.6973 229.831,60.7073 227.431,60.3673 C 223.381,59.2773 226.031,64.1573 225.431,66.1673 C 223.321,63.9973 216.931,61.7273 219.231,57.9473 C 224.361,61.4573 226.301,55.8473 232.541,58.7173 C 234.311,59.4273 236.071,60.1573 237.831,60.8873 L 239.091,61.6673 C 239.711,62.0673 240.331,62.4573 240.951,62.8373 C 246.141,65.6773 250.551,68.2773 254.811,72.4673 C 257.661,74.2473 257.501,69.7973 258.331,68.1273 C 260.511,66.5373 262.011,65.3973 264.801,65.3673 C 265.021,63.1173 265.011,60.7973 264.721,58.5473 L 264.551,56.8673 Z" fill="#383a1c"/>
<path d="M 383.654,80.995 L 384.824,80.995 C 385.714,84.235 385.474,83.745 382.654,85.255 C 382.874,83.795 383.154,82.385 383.654,80.995 Z" fill="#a1b47a"/>
<path d="M 486.809,62.9319 L 514.069,62.9319 C 512.029,64.2819 509.299,64.6019 507.429,66.0119 C 509.339,69.8519 515.659,67.1019 515.009,62.9319 L 526.959,62.9319 C 524.679,65.2219 522.719,67.6419 520.049,69.4919 C 520.479,72.3419 521.779,71.7219 524.139,72.0719 C 521.069,69.7919 527.759,64.2819 529.869,66.6019 C 534.569,68.2419 526.019,67.4219 526.819,69.7519 C 529.139,72.5419 531.449,67.6219 534.379,69.9019 C 532.159,72.2719 531.479,71.5219 533.499,74.4619 C 531.709,74.4219 528.859,73.1619 527.849,75.2019 C 526.199,78.1219 532.289,76.4419 533.709,76.7919 C 533.569,80.0619 533.649,83.3419 533.439,86.6119 C 530.299,85.3819 524.999,86.5419 528.189,81.8019 C 526.449,82.6219 524.839,83.5419 523.469,84.9119 C 525.249,88.1519 527.749,91.6519 531.359,92.9319 C 533.079,96.7819 529.349,96.0419 529.549,99.9319 C 529.559,102.842 528.249,100.892 526.489,100.682 C 523.209,100.472 520.009,93.2119 518.349,96.7619 C 516.699,98.0919 514.779,99.3319 513.399,100.922 C 515.199,103.432 515.369,103.942 518.469,102.972 C 515.959,105.812 520.539,112.182 515.529,110.452 C 515.609,111.882 515.959,113.242 516.399,114.602 C 514.929,114.572 512.399,112.152 511.829,114.182 C 511.119,116.362 508.309,114.642 506.689,114.672 C 504.839,111.032 503.119,111.992 499.579,112.142 L 498.899,111.812 C 498.899,109.352 498.769,107.002 497.779,104.712 C 496.789,102.132 494.589,99.9119 492.789,97.8619 C 491.469,96.2819 489.879,95.0619 488.169,93.9519 C 489.649,92.8519 491.209,91.8719 492.709,90.8119 C 490.099,89.4919 487.769,86.6319 484.879,88.7019 C 484.989,86.9619 485.399,85.3919 484.849,83.6719 C 483.899,80.0719 482.759,76.5819 482.349,72.8519 C 483.829,71.8719 483.829,70.7419 483.699,69.1219 C 484.019,68.4819 484.329,67.8319 484.639,67.1919 C 487.459,65.6819 487.699,66.1719 486.809,62.9319 Z" fill="#f4f9ed"/>
<path d="M 641.956,87.8512 L 642.896,87.8512 C 643.546,92.0212 637.226,94.7712 635.316,90.9312 C 637.186,89.5212 639.916,89.2012 641.956,87.8512 Z" fill="#c3e68c"/>
<path d="M 765.443,86.4711 L 765.983,86.4711 C 768.523,88.0411 771.033,88.5411 773.963,88.8211 C 780.433,90.1011 773.263,93.7111 773.723,97.5311 C 773.203,98.4611 772.693,99.3911 772.193,100.331 C 770.773,99.9811 764.683,101.661 766.333,98.7411 C 767.343,96.7011 770.193,97.9611 771.983,98.0011 C 769.963,95.0611 770.643,95.8111 772.863,93.4411 C 769.933,91.1611 767.623,96.0811 765.303,93.2911 C 764.503,90.9611 773.053,91.7811 768.353,90.1411 C 766.243,87.8211 759.553,93.3311 762.623,95.6111 C 760.263,95.2611 758.963,95.8811 758.533,93.0311 C 761.203,91.1811 763.163,88.7611 765.443,86.4711 Z" fill="#d2e991"/>
<path d="M 889.84,96.0563 L 902.5,96.0563 C 901,97.2763 899.73,97.9963 897.82,98.4062 C 894.89,98.1262 892.38,97.6262 889.84,96.0563 Z" fill="#2d311a"/>
<path d="M 1025.53,97.2627 L 1028.22,97.2627 C 1024.97,100.503 1024.06,105.493 1020.61,108.323 C 1020.15,104.503 1027.32,100.893 1020.85,99.6127 C 1022.76,99.2027 1024.03,98.4827 1025.53,97.2627 Z" fill="#8d8f5c"/>
<path d="M 1155.29,84.4839 L 1159.13,84.4839 C 1159.16,85.4839 1159.2,86.4739 1159.24,87.4739 C 1156.77,90.3839 1153.52,91.2439 1152.48,95.2239 C 1150.66,98.7339 1150.8,102.384 1151.11,106.214 C 1151.16,108.564 1151.74,110.644 1152.7,112.774 C 1153.4,114.524 1154.02,115.744 1155.77,116.624 C 1159.58,117.274 1153.9,122.904 1153.02,124.494 C 1152.35,123.174 1151.68,121.864 1150.99,120.564 C 1149.85,118.204 1148.67,115.874 1147.66,113.454 C 1147.41,112.714 1147.16,111.974 1146.92,111.234 C 1146.89,107.084 1147.64,102.244 1146.15,98.3439 C 1146.65,97.4039 1147.16,96.4739 1147.68,95.5439 C 1151.13,92.7139 1152.04,87.7239 1155.29,84.4839 Z" fill="#3a3e24"/>
<path d="M 1273.37,105.256 L 1288.42,105.256 C 1287.66,107.956 1286.55,110.516 1285.98,113.266 C 1285.45,111.956 1285,110.636 1284.42,109.356 C 1283.88,107.036 1275.6,103.986 1278.24,107.956 C 1276.61,107.866 1275.09,107.946 1273.48,108.246 C 1273.44,107.246 1273.4,106.256 1273.37,105.256 Z" fill="#799e28"/>
<path d="M 1408.01,107.431 L 1408.9,107.431 C 1409.4,109.661 1409.78,111.901 1410.09,114.171 C 1409.31,114.201 1405.53,117.111 1405.57,115.441 C 1406.14,112.691 1407.25,110.131 1408.01,107.431 Z" fill="#c0ce9d"/>
<path d="M 1531.96,94.5169 L 1538.77,94.5169 C 1540.67,102.297 1542.37,109.317 1542.36,117.357 C 1541.49,120.477 1538.95,121.417 1543.9,120.897 C 1541.91,122.627 1541.32,123.667 1538.83,121.977 C 1537.99,125.067 1537.1,128.377 1535.62,131.237 C 1532.23,132.607 1531.4,132.847 1530.18,136.617 L 1529.74,135.827 C 1529.01,134.537 1528.31,133.237 1527.68,131.897 C 1533.23,131.947 1532.12,119.457 1533.64,117.097 C 1539.05,117.957 1534.32,115.207 1538.57,113.947 C 1537.5,112.197 1535.66,111.077 1534.59,109.267 C 1536.22,109.227 1537.47,109.417 1538.99,109.947 C 1539.53,108.457 1540.33,105.427 1539.17,104.237 C 1535.41,101.927 1539.22,107.487 1534.97,107.797 C 1534.23,105.647 1533.69,103.457 1533.15,101.257 C 1532.84,98.9869 1532.46,96.7469 1531.96,94.5169 Z" fill="#352c12"/>
<path d="M 1590.18,-9.7587 L 1622.6,-9.7587 C 1622.04,-8.7487 1621.51,-7.7287 1621.01,-6.6987 C 1620.21,-4.5187 1619.9,-2.1587 1619.33,0.0813034 C 1618.97,0.771303 1618.61,1.4713 1618.27,2.1713 C 1616.84,6.1413 1614.11,10.6813 1614.43,14.9613 C 1615.44,15.1513 1616.46,15.3113 1617.48,15.4413 C 1613.82,21.6413 1616.51,27.8513 1611.4,32.9213 C 1610.01,35.9513 1607.13,38.8413 1606.66,42.1313 C 1606.51,43.6013 1606.11,44.9613 1605.62,46.3413 C 1604.75,48.6213 1604.17,50.9913 1603.4,53.3013 C 1600.52,55.7913 1600.31,58.9213 1599.02,62.2713 C 1597.5,64.9813 1599.52,67.8413 1598.19,70.3613 C 1597.08,71.4213 1596.04,72.5113 1595.29,73.8613 C 1590.88,79.6813 1596.19,84.6113 1600.36,88.4313 L 1600.33,90.1213 C 1600.62,92.2713 1599.32,93.3713 1602.16,92.5413 C 1602.59,93.4213 1603.03,94.2913 1603.5,95.1613 C 1605.55,98.1813 1605.48,101.691 1608.31,96.3013 C 1612.61,99.3213 1616.16,98.1213 1619.47,94.4513 L 1620.32,94.3513 C 1626.31,94.7413 1628.49,88.2813 1634.28,86.4213 C 1632.19,86.1513 1624.22,88.9913 1629.31,85.1413 C 1631.03,84.7313 1632.73,84.3113 1634.36,83.5913 C 1638.89,82.3913 1636.94,78.6313 1637.08,75.1313 C 1639.74,76.6213 1643.04,74.5913 1645.98,74.2513 C 1641.51,70.1413 1649.27,70.8513 1651.5,69.3713 C 1653.05,68.0113 1658.18,66.8413 1655.85,64.2813 C 1658.74,63.0913 1665.01,64.9613 1664.38,60.2613 C 1666.72,59.6213 1669.01,58.8413 1671.29,58.0413 C 1677.49,59.8613 1680.47,69.1413 1687.34,68.3013 C 1689.74,67.8313 1693.38,72.6313 1690.65,74.3413 C 1693.58,73.7013 1696.28,73.5713 1698.4,71.1713 C 1699.59,73.9113 1702.38,75.9513 1704.98,77.2813 C 1704.9,75.9213 1704.74,74.5813 1704.64,73.2313 C 1705.73,74.4913 1706.67,75.8613 1707.6,77.2413 C 1705.7,80.1413 1705.84,83.3213 1708.15,85.5513 C 1710.02,85.5713 1719.7,86.7613 1714.12,89.0713 C 1712.92,90.3813 1711.03,88.0713 1709.38,88.3113 C 1709.37,90.3813 1710.86,91.5113 1712.35,92.6613 C 1714.3,91.8013 1716.45,90.1913 1718.43,91.9913 C 1721.74,94.0513 1712.83,92.5113 1716.46,94.1813 C 1719.32,95.5713 1718.48,96.2013 1718.68,98.9913 C 1722.84,99.6513 1723.51,98.6413 1726.71,102.351 C 1724.77,105.761 1725.06,105.991 1727.03,109.251 L 1727.23,109.871 C 1724.56,111.801 1728.27,117.251 1729.37,119.431 C 1727.05,122.741 1731.5,132.481 1733.35,124.831 C 1734.14,127.861 1732.49,130.011 1732.19,132.951 C 1734.33,132.291 1735.05,130.251 1736.63,132.931 C 1736.6,135.151 1737.79,136.101 1739.54,134.401 L 1741.13,134.261 C 1743.1,134.961 1745.07,135.651 1746.99,136.511 C 1747.94,137.911 1749.94,137.651 1751.48,138.121 C 1753.71,140.471 1753.72,142.941 1757.51,141.201 C 1764.2,142.291 1769.85,140.151 1776.35,139.391 C 1774.85,140.411 1773.2,141.031 1771.53,141.721 C 1773.88,143.731 1774.55,146.201 1777.75,143.761 C 1782.3,142.491 1783.05,151.351 1781.56,154.261 L 1781.51,155.131 C 1780.44,155.581 1779.34,156.001 1778.23,156.381 C 1777.21,156.381 1776.19,156.371 1775.17,156.371 C 1774.25,156.011 1773.32,155.651 1772.4,155.311 C 1770.22,154.131 1768.54,154.751 1766.37,155.581 C 1763.79,157.431 1761.2,158.941 1758.19,160.011 C 1757.07,160.111 1755.95,160.211 1754.83,160.311 C 1754.03,159.041 1753.85,157.831 1752.2,157.481 L 1750.45,156.891 C 1749.02,155.841 1747.98,155.871 1746.31,156.311 L 1745.52,156.351 C 1740.7,155.381 1742.26,159.491 1742.96,162.441 C 1743.8,165.341 1745.49,166.331 1743.23,169.041 C 1741.47,172.691 1742.12,178.321 1742.98,182.221 L 1743.13,182.841 C 1741.7,185.081 1740.9,187.541 1739.93,189.991 C 1736.31,186.971 1732.5,183.701 1739.25,181.421 C 1736.75,176.091 1736.74,182.841 1733.86,181.301 C 1734.98,173.721 1736.16,166.731 1735.18,159.021 C 1739.54,154.181 1732.8,155.741 1734.43,150.891 C 1726.79,146.991 1720.5,142.501 1715.79,135.231 C 1715.44,128.911 1714.3,122.871 1715.22,116.521 C 1707.49,115.301 1716.33,126.831 1711.49,124.241 C 1711.32,123.191 1711.14,122.131 1710.95,121.071 C 1710.28,117.411 1708.07,115.281 1709.09,111.321 C 1706.89,113.501 1707.13,117.091 1703.49,114.641 C 1703.6,117.021 1704.89,118.021 1701.89,116.151 L 1702.02,115.281 C 1703.1,113.781 1704.98,108.161 1707.42,110.741 C 1707.74,108.921 1707.08,105.711 1705.72,104.441 C 1700.55,101.601 1699.91,96.6413 1693.72,94.9713 C 1691.69,93.7313 1689.6,92.5913 1687.5,91.4813 C 1684.75,90.0413 1682.5,88.3613 1679.24,89.0413 C 1678.03,88.3713 1676.83,87.6813 1675.61,87.0213 C 1674.27,86.2613 1672.94,85.5313 1671.5,85.0013 C 1668.38,83.7213 1664.43,84.2413 1661.13,84.3613 C 1658.52,84.5613 1655.8,85.0713 1653.31,85.8713 C 1650.91,87.2113 1648.89,89.0213 1647.06,91.0413 C 1645.68,92.4513 1644.39,93.9313 1643.07,95.3913 C 1636.17,99.7413 1646.98,101.391 1650.44,100.991 C 1651.32,103.331 1651.05,104.751 1650.31,107.061 C 1648.67,107.311 1647.02,107.521 1645.37,107.761 C 1644.06,107.501 1642.75,107.221 1641.45,106.931 C 1637.17,105.301 1634.57,100.711 1631.16,106.321 C 1629.23,108.721 1626.61,111.231 1626.17,114.381 C 1625.7,117.791 1628.81,119.171 1628.65,122.321 C 1628.46,124.301 1629.87,124.381 1631.15,125.401 C 1628.93,130.581 1634.43,136.191 1637.72,139.661 C 1631.59,140.791 1635.87,146.061 1638.18,149.391 C 1640.26,152.911 1644.88,147.791 1641.64,153.061 C 1646.55,154.551 1643.76,160.411 1648.74,163.401 C 1649.85,158.741 1647.19,158.411 1646.1,154.541 C 1647.91,156.001 1649.85,157.171 1651.82,158.401 C 1651.13,160.311 1650.47,161.131 1651.51,163.141 C 1652.4,162.171 1653.14,161.091 1653.95,160.051 C 1654.17,161.101 1654.4,162.151 1654.65,163.191 C 1652.13,167.431 1651.69,169.631 1657.18,170.811 C 1659.07,172.131 1664.79,182.041 1658.13,177.611 C 1660.73,181.201 1663.18,184.031 1663.17,188.781 C 1667.22,185.501 1667.28,192.571 1669.35,194.681 C 1667.44,194.991 1665.16,193.471 1667.25,196.341 C 1669.48,198.561 1668.3,200.821 1669.63,202.981 C 1670.69,200.141 1672.59,200.741 1675.05,199.881 C 1675.68,197.551 1670.16,189.841 1675.58,192.021 C 1678.83,196.031 1679.33,199.371 1680.04,204.341 C 1679.96,206.631 1678.77,208.231 1677.91,210.301 C 1675.73,213.691 1672.89,216.421 1670.07,219.251 C 1665.15,222.851 1664.57,228.041 1660.34,231.871 C 1658.18,231.711 1656.94,231.941 1655.01,232.941 C 1654.03,233.341 1653.05,233.751 1652.08,234.161 C 1648.61,234.451 1645.79,233.121 1642.64,231.961 L 1641.85,231.581 C 1643.54,230.501 1651.04,227.231 1644.55,227.541 C 1642.11,225.191 1642,217.981 1640.94,214.371 C 1643.89,212.381 1643.92,209.631 1647.86,209.301 C 1645.8,206.481 1649,204.241 1646.76,200.841 C 1643.46,198.921 1640.58,196.891 1637.72,194.351 C 1634.6,191.831 1631.79,189.771 1630.12,185.961 L 1629.46,184.591 L 1629.2,183.851 C 1627.68,179.941 1626.24,175.311 1623.35,172.191 C 1621.2,169.701 1617.76,170.341 1617.39,166.681 C 1612.92,164.831 1608.6,157.851 1604.22,162.091 C 1602.44,159.661 1601.19,156.551 1599.01,154.471 L 1598.4,153.991 C 1597.13,149.391 1597.62,144.991 1598.41,140.361 C 1598.78,138.311 1599.06,134.951 1597.35,133.441 L 1596.72,132.781 C 1596.17,132.001 1595.63,131.211 1595.09,130.421 C 1594.56,127.761 1595.84,125.611 1592.24,125.211 L 1591.48,124.981 C 1584.16,122.701 1575.99,118.551 1571.57,112.071 C 1571.15,111.541 1570.73,111.001 1570.32,110.451 C 1568.77,105.101 1567.03,102.681 1562.77,99.1713 C 1562.29,98.5313 1561.82,97.8913 1561.33,97.2513 C 1560.96,96.1613 1560.59,95.0813 1560.23,93.9913 L 1560.04,92.5713 C 1567.31,94.3413 1560.73,86.8313 1561.94,83.2513 C 1566.01,85.7113 1563.23,78.3713 1566.98,78.1213 C 1571.59,77.7813 1572.52,72.0813 1570.42,68.7513 C 1576.34,70.2213 1573.11,65.6913 1576.25,62.4013 C 1577.05,61.4313 1575.41,60.6113 1576.05,59.7713 C 1579.91,54.3213 1576.47,46.0513 1577.07,39.6813 C 1579.72,37.3813 1580.93,35.9113 1581.59,32.3413 C 1582.81,28.5713 1583.64,28.3313 1587.03,26.9613 C 1588.51,24.1013 1589.4,20.7913 1590.24,17.7013 C 1592.73,19.3913 1593.32,18.3513 1595.31,16.6213 C 1590.36,17.1413 1592.9,16.2013 1593.77,13.0813 C 1593.78,5.0413 1592.08,-1.9787 1590.18,-9.7587 Z" fill="#0d0704"/>
<path d="M 1787.7,116.626 L 1788.54,116.626 C 1790.85,119.486 1791.54,121.756 1791.92,125.356 C 1795.31,126.596 1792.14,118.066 1791.56,116.626 L 1796.57,116.626 C 1792.68,118.566 1796.81,122.786 1797.52,125.656 C 1797.51,126.636 1797.48,127.626 1797.43,128.606 C 1795.76,127.746 1794.27,126.976 1792.34,127.126 C 1791.36,126.656 1790.4,126.146 1789.46,125.606 C 1789.23,122.596 1788.15,121.716 1786.11,119.686 C 1786.61,118.656 1787.14,117.636 1787.7,116.626 Z" fill="#8c995c"/>
<path d="M 1917.24,122.484 L 1920.26,122.484 C 1920.84,123.924 1924.01,132.454 1920.62,131.214 C 1920.24,127.614 1919.55,125.344 1917.24,122.484 Z" fill="#d7e3a5"/>
<path d="M 2044.08,126.025 L 2045.84,126.025 C 2046.82,127.395 2047.79,128.815 2048.87,130.105 C 2050.05,128.795 2051.13,127.375 2052.26,126.025 L 2054.44,126.025 C 2053.59,127.735 2052.66,129.415 2051.76,131.105 C 2049.5,131.415 2048.21,131.475 2046.13,130.475 C 2046.38,132.365 2046.98,133.815 2045.81,135.575 L 2045.03,135.055 C 2044.32,132.185 2040.19,127.965 2044.08,126.025 Z" fill="#e1efc7"/>
<path d="M 2173.26,131.655 L 2179.68,131.655 C 2178.56,133.005 2177.47,134.425 2176.3,135.735 C 2175.22,134.445 2174.24,133.025 2173.26,131.655 Z" fill="#cce441"/>
<path d="M 2303.84,134.027 L 2308.87,134.027 C 2307.98,138.107 2303.78,137.677 2301.44,141.077 L 2301.16,139.107 C 2302.06,137.417 2302.99,135.737 2303.84,134.027 Z" fill="#9ea76a"/>
<path d="M 2437.03,131.763 L 2439.79,131.763 L 2439.25,132.573 C 2438.37,133.843 2437.47,135.093 2436.64,136.393 C 2435.75,137.753 2435.03,139.193 2434.34,140.653 C 2433.47,145.133 2429.07,144.723 2428.65,148.513 C 2427.55,149.763 2425.96,148.913 2424.57,148.783 C 2424.88,147.553 2425.13,146.313 2425.35,145.063 C 2426.8,143.003 2428.3,140.983 2429.6,138.813 C 2431.94,135.413 2436.14,135.843 2437.03,131.763 Z" fill="#363d17"/>
<path d="M -3.83154,142.335 L -2.00154,142.335 C -1.10154,144.345 0.938462,144.095 1.95846,142.335 L 4.19846,142.335 C 3.90846,143.965 3.59846,145.575 2.98846,147.125 C 0.0384615,143.385 -2.49154,148.685 -4.37154,143.145 L -3.83154,142.335 Z" fill="#dff3c0"/>
<path d="M 126.44,146.846 L 130.4,146.846 C 129.38,148.606 127.34,148.856 126.44,146.846 Z" fill="#b6da31"/>
<path d="M 273.681,127.935 L 279.561,127.935 C 279.451,131.295 279.141,134.395 277.981,137.565 C 276.431,141.095 279.141,144.035 277.511,147.495 C 274.561,146.205 277.401,143.255 273.561,142.945 C 274.011,146.005 273.911,148.945 276.231,151.255 C 275.401,154.535 274.801,157.965 273.581,161.125 C 271.211,158.625 267.481,160.315 265.091,161.885 C 262.821,160.425 261.281,159.495 258.431,160.055 C 258.101,162.565 260.571,161.915 262.221,162.675 C 262.211,166.095 261.121,166.305 258.151,166.765 C 256.021,167.575 255.641,170.185 254.111,167.105 C 252.261,163.805 251.151,168.095 249.991,169.405 C 248.851,168.505 247.821,165.075 246.181,166.745 C 245.191,164.855 244.481,163.505 242.451,162.545 C 242.731,161.725 243.031,160.905 243.341,160.095 C 246.561,159.785 246.651,158.925 247.291,156.035 C 244.851,157.095 243.161,156.815 243.341,160.095 C 239.661,154.375 240.411,163.915 240.321,166.025 L 238.291,165.835 C 238.001,163.895 237.681,161.975 237.051,160.105 C 236.421,157.635 235.381,155.395 234.521,153.005 C 235.071,151.665 232.841,148.745 234.991,148.865 C 238.561,149.995 238.101,150.835 237.521,146.945 L 238.451,146.795 C 239.401,147.625 240.351,148.465 241.291,149.305 C 242.701,151.765 244.151,151.435 240.461,152.435 C 241.681,154.155 243.581,153.315 245.311,152.965 C 247.511,152.285 252.191,151.185 252.761,154.445 C 254.411,152.935 256.081,152.565 258.101,151.775 C 258.221,148.985 253.521,150.815 251.891,150.675 C 251.771,148.225 250.801,147.485 249.131,145.845 L 250.431,144.955 C 251.821,145.085 253.411,145.935 254.511,144.685 C 254.931,140.895 259.331,141.305 260.201,136.825 C 260.711,137.495 261.221,138.175 261.711,138.855 C 262.061,142.795 255.471,146.045 262.021,148.115 C 265.181,150.285 272.331,147.175 267.611,144.075 L 266.441,143.225 C 265.191,141.575 265.831,140.015 265.881,138.135 C 266.151,134.805 270.701,137.345 272.901,136.955 C 272.661,135.435 271.901,134.195 272.471,132.725 C 273.081,131.175 273.391,129.565 273.681,127.935 Z" fill="#9ec81f"/>
<path d="M 385.905,120.886 L 387.995,120.886 L 387.495,123.036 L 387.205,123.986 C 386.735,125.246 386.525,126.426 386.555,127.766 C 385.985,130.266 384.265,133.786 387.485,135.136 C 390.215,135.836 386.065,138.556 385.665,139.986 C 385.065,141.186 384.895,142.436 384.635,143.736 C 382.995,148.036 383.195,152.836 381.395,156.946 C 377.985,161.466 379.185,162.526 381.045,167.346 C 383.685,166.696 385.505,165.846 387.605,164.116 C 390.465,168.376 390.905,170.306 385.875,172.696 C 384.925,170.376 384.205,166.576 381.735,170.736 C 383.595,173.176 385.495,175.636 387.525,177.946 C 387.995,178.576 388.465,179.206 388.935,179.846 C 388.525,180.636 388.115,181.426 387.695,182.206 C 386.695,181.456 385.685,180.706 384.695,179.936 C 383.585,177.776 382.365,175.706 380.725,173.896 C 379.165,172.056 377.625,170.256 376.495,168.106 L 376.285,167.266 C 375.105,164.436 376.315,162.466 375.805,159.756 C 377.165,157.916 379.055,156.176 379.925,154.076 C 381.145,150.916 381.745,147.486 382.575,144.206 C 383.015,142.956 383.475,141.716 383.855,140.446 C 385.485,136.986 382.775,134.046 384.325,130.516 C 385.485,127.346 385.795,124.246 385.905,120.886 Z" fill="#2c3214"/>
<path d="M 504.559,152.622 L 516.189,152.622 L 516.349,154.472 C 516.409,155.662 516.689,156.832 517.159,157.992 C 516.109,158.732 513.859,159.252 513.789,160.732 C 510.799,164.392 514.409,167.532 507.889,165.752 C 508.759,164.942 513.129,161.342 509.489,161.622 C 510.469,160.312 512.179,159.922 511.259,158.042 C 512.649,156.872 512.939,157.602 514.429,158.142 C 514.389,152.822 507.479,154.402 504.059,154.772 L 504.559,152.622 Z" fill="#97ae64"/>
<path d="M 632.572,158.844 L 642.522,158.844 C 643.692,160.254 644.862,161.664 646.042,163.064 C 644.742,165.774 642.892,164.434 640.522,164.464 C 641.892,164.134 643.252,163.784 644.612,163.414 C 641.992,162.274 639.262,162.164 636.542,161.384 C 635.282,161.094 634.012,160.864 632.732,160.694 L 632.572,158.844 Z" fill="#6e7c48"/>
<path d="M 762.815,163.629 L 777.645,163.629 C 774.635,166.979 770.615,167.599 766.335,167.849 C 765.155,166.449 763.985,165.039 762.815,163.629 Z" fill="#99b83a"/>
<path d="M 902.67,163.996 L 914.36,163.996 C 912.94,164.656 911.44,165.316 910.13,166.176 C 910.62,168.356 915.33,168.246 914.53,171.046 C 912.4,169.766 910.3,168.266 908,167.336 C 903.21,170.106 898.88,167.696 895.3,171.956 C 894.18,171.626 893.06,171.356 891.92,171.166 C 889.39,170.656 887.05,170.346 884.81,171.936 C 883.79,171.986 882.76,172.026 881.74,172.066 L 880.81,172.006 C 881.24,171.326 881.67,170.646 882.1,169.976 C 883.35,169.826 884.59,169.686 885.84,169.616 C 888.21,169.586 890.06,170.926 891.36,168.216 C 895.64,167.966 899.66,167.346 902.67,163.996 Z" fill="#2d3517"/>
<path d="M 1022.45,161.461 L 1032.52,161.461 C 1030.46,162.441 1025.54,162.841 1026.72,166.211 L 1025.25,166.771 C 1027.8,169.671 1031.03,170.911 1034.23,172.911 C 1031.59,174.631 1027.78,172.661 1032.3,176.701 C 1026.76,176.861 1028.75,175.841 1028.84,171.521 C 1025.24,172.341 1023.94,176.611 1019.78,177.531 C 1021.73,178.981 1023.89,179.661 1026.11,180.551 C 1027.51,182.311 1029.25,182.151 1026.33,183.591 C 1024.61,180.801 1018.91,177.921 1022.61,183.651 C 1018.32,183.471 1018.4,179.321 1017.02,176.251 C 1016.4,175.891 1015.77,175.541 1015.12,175.231 C 1016.43,171.251 1022.67,171.581 1022.62,168.511 C 1023.42,165.711 1018.71,165.821 1018.22,163.641 C 1019.53,162.781 1021.03,162.121 1022.45,161.461 Z" fill="#a5bb62"/>
<path d="M 1135.95,160.141 L 1145.71,160.141 C 1147.73,162.041 1146.16,164.441 1148.21,166.321 C 1150.11,169.771 1152.92,168.291 1156.19,169.321 C 1156.1,169.821 1156.02,170.331 1155.95,170.831 C 1160.4,172.091 1168.16,172.771 1170.72,177.011 C 1168.97,177.231 1167.86,176.881 1166.33,176.101 C 1164,175.171 1158.68,172.061 1158.35,176.481 C 1154.53,174.191 1151.27,171.981 1146.58,172.131 C 1148.84,175.351 1152.25,175.361 1154.01,178.991 C 1154.77,174.661 1155.8,177.331 1158.45,178.271 C 1160.23,184.701 1168.52,176.471 1170.85,185.251 C 1170.55,186.241 1170.21,187.211 1169.84,188.171 C 1168.01,186.181 1166.1,184.201 1164.01,182.491 C 1162.55,184.391 1162.08,187.391 1159.09,186.601 C 1156.29,186.051 1158.23,187.501 1158.5,188.951 L 1156.18,188.791 C 1156.44,187.371 1157.01,186.081 1157.64,184.791 C 1158.53,183.371 1157.65,179.491 1155.42,180.131 C 1150.49,179.161 1149.25,183.241 1145.32,185.431 C 1142.89,185.461 1141.79,177.231 1141.33,182.281 C 1138.19,180.291 1135.72,181.261 1138.42,177.031 C 1140.47,173.951 1137.63,175.751 1135.73,175.381 C 1131.21,171.341 1135.02,173.311 1137.66,171.591 C 1140.51,171.611 1143.74,173.841 1140.78,169.661 C 1135.96,170.341 1134.15,166.781 1130.15,164.891 C 1128.97,161.521 1133.89,161.121 1135.95,160.141 Z" fill="#88a821"/>
<path d="M 1267.32,175.505 L 1269.95,175.505 L 1271.09,176.585 C 1270.49,179.975 1271.81,179.545 1274.21,178.295 C 1276.01,178.805 1278.72,181.125 1280.4,179.655 C 1282.38,178.625 1284.16,177.035 1285.76,175.505 L 1295.21,175.505 C 1296.5,180.995 1296.74,184.645 1289.78,182.895 C 1287.41,182.295 1289.61,179.995 1289.72,178.425 C 1287.08,179.495 1286.02,179.105 1286.16,182.485 C 1284.67,185.275 1280.53,184.835 1277.8,184.685 C 1274.53,183.655 1271.72,185.135 1269.82,181.685 C 1267.77,179.805 1269.34,177.405 1267.32,175.505 Z" fill="#acd317"/>
<path d="M 1403.23,181.627 L 1408.21,181.627 C 1410.05,182.987 1411.86,184.387 1413.68,185.777 C 1412,187.247 1409.29,184.927 1407.49,184.417 C 1406.57,183.147 1405.99,182.727 1404.37,182.707 L 1403.23,181.627 Z" fill="#4d632a"/>
<path d="M 1531.19,185.585 L 1542.02,185.585 C 1540.42,187.115 1538.64,188.705 1536.66,189.735 C 1534.84,188.345 1533.03,186.945 1531.19,185.585 Z" fill="#e0ebc1"/>
<path d="M 1666.71,180.306 L 1668.33,180.306 C 1668.98,182.746 1670.25,184.846 1671.31,187.106 C 1668.8,188.346 1665.36,188.516 1670.33,190.436 C 1669.79,192.056 1668.23,193.096 1669.44,194.746 C 1670.26,196.276 1672.21,197.146 1673.5,198.266 C 1669.7,198.876 1668.21,197.236 1665.31,195.356 C 1664.87,196.486 1665.44,197.306 1663.83,197.176 C 1661.27,192.936 1653.51,192.256 1649.06,190.996 C 1649.13,190.496 1649.21,189.986 1649.3,189.486 C 1652.03,189.636 1656.17,190.076 1657.66,187.286 C 1659.33,189.356 1665.64,198.036 1666.55,191.286 C 1664.99,189.876 1663.06,188.826 1661.28,187.696 C 1668.24,189.446 1668,185.796 1666.71,180.306 Z" fill="#626e20"/>
<path d="M 1788.69,189.459 L 1797.21,189.459 C 1796.79,191.129 1796.37,192.799 1796,194.489 C 1791.67,193.209 1793.4,193.969 1793.74,197.279 C 1792.61,197.949 1791.64,198.679 1790.69,199.589 C 1785.72,197.669 1789.16,197.499 1791.67,196.259 C 1790.61,193.999 1789.34,191.899 1788.69,189.459 Z" fill="#a6bb21"/>
<path d="M 1937.15,158.222 L 1944.05,158.222 C 1941.35,163.532 1938.19,168.712 1935.71,174.092 C 1933.49,177.652 1938.83,175.732 1940.76,176.312 C 1946.64,176.952 1947.52,173.382 1952.86,177.082 C 1954.52,177.592 1956.2,178.082 1957.87,178.542 C 1958.75,178.782 1959.64,178.992 1960.52,179.192 C 1963.29,180.182 1966.05,181.052 1968.89,181.792 C 1969.96,182.192 1971.04,182.582 1972.14,182.922 C 1974.71,183.692 1974.77,183.302 1974.79,186.122 C 1967.4,184.292 1960.47,180.602 1952.98,178.982 C 1947.24,177.432 1936.19,177.072 1940.95,186.372 C 1940.28,187.822 1934.17,191.982 1936.74,193.042 L 1938.07,194.302 L 1936.95,195.332 C 1935.21,195.842 1934.62,196.462 1933.75,198.012 C 1932.1,198.422 1930.76,199.012 1929.34,199.952 C 1927.54,200.902 1925.61,201.822 1923.92,202.962 C 1918.65,205.732 1916.41,210.372 1912.27,214.242 C 1911.86,214.522 1911.45,214.812 1911.05,215.112 C 1906.54,218.562 1902.09,222.232 1897.9,226.062 L 1896.81,227.052 C 1895.31,228.012 1893.85,228.972 1892.6,230.262 C 1891.67,231.162 1890.73,232.062 1889.76,232.932 C 1887.22,235.192 1884.22,237.342 1882.34,240.192 C 1881.85,240.852 1881.36,241.522 1880.88,242.182 L 1879.65,243.472 C 1875.52,241.252 1882.61,234.832 1884.66,233.012 C 1885.32,232.282 1887.32,231.492 1886.73,230.332 C 1881.59,230.992 1877.26,237.462 1873.54,240.712 C 1868.21,237.402 1871.16,237.792 1872.79,233.292 L 1873.1,232.612 C 1873.76,231.902 1874.42,231.192 1875.09,230.502 C 1880.37,228.392 1883.9,224.052 1889.43,222.652 C 1891.16,222.072 1892.06,220.782 1893.16,219.442 C 1894.14,218.422 1895.13,217.412 1896.13,216.402 C 1902.05,215.282 1907.26,208.632 1910.95,204.162 C 1914.72,202.222 1915.49,200.032 1916.84,196.152 C 1918.59,192.582 1921.38,189.712 1923.25,186.252 C 1923.62,185.292 1923.96,184.322 1924.26,183.332 C 1925.36,181.302 1926.79,179.472 1927.84,177.422 C 1923.76,176.912 1919.76,177.272 1915.71,177.702 C 1916.47,175.752 1918.03,175.132 1919.74,174.182 C 1921.27,174.962 1922.38,175.312 1924.13,175.092 C 1925.74,175.222 1925.17,174.402 1925.61,173.272 C 1928.51,175.152 1930,176.792 1933.8,176.182 C 1932.51,175.062 1930.56,174.192 1929.74,172.662 C 1931.58,171.052 1932.79,169.252 1933.93,167.122 C 1935.57,165.962 1935.65,165.172 1935.94,163.252 C 1936.31,161.562 1936.73,159.892 1937.15,158.222 Z" fill="#1d1b0c"/>
<path d="M 2048.98,191.606 L 2060.1,191.606 C 2056.76,194.096 2055.34,200.306 2050.63,199.146 C 2049.89,200.286 2049.23,201.466 2048.46,202.596 C 2047.08,204.346 2044.97,206.486 2045.6,208.916 L 2045.69,209.696 C 2043.76,209.116 2038.42,211.036 2040.64,207.476 C 2043.12,202.096 2046.28,196.916 2048.98,191.606 Z" fill="#88a724"/>
<path d="M 2179.54,197.105 L 2185.29,197.105 C 2184.54,200.335 2186.12,201.965 2181.82,202.405 C 2182.76,204.725 2182.64,206.275 2182.15,208.725 C 2177.49,205.755 2176.71,208.275 2172.76,210.465 C 2170.66,208.915 2171.02,208.815 2170.04,211.305 C 2169.3,210.245 2168.58,209.185 2167.9,208.095 C 2168.67,206.965 2169.33,205.785 2170.07,204.645 C 2174.78,205.805 2176.2,199.595 2179.54,197.105 Z" fill="#516c0e"/>
<path d="M 2303.35,196.126 L 2322.23,196.126 C 2321.89,197.696 2321.65,199.286 2321.33,200.866 C 2319.49,201.376 2317.94,202.036 2316.33,203.066 C 2312.1,200.706 2312.26,205.456 2315.98,205.266 C 2322.17,205.496 2311.79,209.506 2314.39,212.806 C 2311.48,215.106 2311.72,216.256 2311.32,219.696 C 2308.48,218.956 2305.72,218.086 2302.95,217.096 C 2306.5,215.806 2308.27,216.996 2308.19,212.496 C 2306.33,213.036 2304.51,213.716 2302.67,214.326 L 2302.35,213.266 C 2303.9,212.256 2305.49,211.286 2307.11,210.386 C 2310.38,211.276 2307.38,205.736 2312.21,209.006 C 2313.94,203.666 2301.65,198.646 2304.65,206.596 C 2303.87,208.816 2303.13,211.046 2302.35,213.266 C 2297.63,218.486 2301.4,209.696 2296.39,211.156 C 2293.75,211.926 2294.95,213.016 2295.29,214.986 C 2289.95,211.286 2289.07,214.856 2283.19,214.216 L 2283.1,213.436 C 2284.67,212.606 2288.08,212.556 2288.1,210.326 C 2289.08,207.836 2288.72,207.936 2290.82,209.486 C 2294.77,207.296 2295.55,204.776 2300.21,207.746 C 2300.7,205.296 2300.82,203.746 2299.88,201.426 C 2304.18,200.986 2302.6,199.356 2303.35,196.126 Z" fill="#779714"/>
<path d="M 2433.32,201.029 L 2442.27,201.029 C 2445.14,203.979 2446.06,203.239 2443.25,206.949 C 2436.38,203.269 2437.52,211.379 2439.3,215.149 C 2438.98,218.899 2433.56,214.969 2436.91,220.069 C 2434.11,221.159 2430.29,219.159 2427.47,219.999 C 2426.4,221.329 2426.63,224.039 2425.66,225.729 C 2424.56,225.389 2423.48,224.999 2422.41,224.599 C 2422.81,221.159 2422.57,220.009 2425.48,217.709 C 2422.88,214.409 2433.26,210.399 2427.07,210.169 L 2427.42,207.969 C 2429.03,206.939 2430.58,206.279 2432.42,205.769 C 2429.06,210.549 2430.99,209.219 2435.11,210.569 C 2436.25,206.389 2437.74,206.119 2432.42,205.769 C 2432.74,204.189 2432.98,202.599 2433.32,201.029 Z" fill="#4f6310"/>
<path d="M -9.81574,198.675 L 19.6543,198.675 C 17.3543,200.755 17.5743,205.085 14.4043,205.475 C 15.8443,206.715 17.2743,207.875 18.3943,209.445 C 14.2743,214.125 10.7643,219.375 6.84426,224.235 C 2.57426,228.985 0.914259,234.325 -5.36574,237.025 C -7.70574,238.815 -8.95574,235.485 -9.95574,233.905 C -6.26574,236.035 -5.21574,235.025 -1.92574,232.885 C -3.90574,229.865 -2.40574,227.065 -5.44574,224.385 L -5.81574,223.735 C -4.11574,224.395 -2.51574,225.085 -0.755741,225.555 C -0.235741,222.235 -3.14574,223.415 -2.95574,221.405 C -0.805741,220.615 0.764259,218.235 -2.40574,217.475 C -3.16574,216.945 -3.93574,216.405 -4.71574,215.875 C -9.30574,212.355 -3.37574,212.415 -0.865741,211.495 C 1.76426,212.585 2.55426,209.105 -0.385741,209.745 C 1.66426,207.045 1.95426,202.525 -1.42574,200.695 C -1.63574,202.615 -1.71574,204.545 -1.94574,206.455 C -4.23574,205.825 -6.52574,205.185 -8.83574,204.595 C -6.02574,200.885 -6.94574,201.625 -9.81574,198.675 Z" fill="#708b1e"/>
<path d="M 129.041,214.035 L 130.221,214.035 C 130.351,216.435 127.011,220.735 130.671,221.385 C 129.711,222.535 128.781,223.695 127.781,224.805 C 126.661,223.235 125.231,222.075 123.791,220.835 C 126.961,220.445 126.741,216.115 129.041,214.035 Z" fill="#44560b"/>
<path d="M 253.826,220.234 L 263.636,220.234 C 260.446,222.584 257.416,225.164 254.276,227.584 C 250.616,226.934 253.956,222.634 253.826,220.234 Z" fill="#76951b"/>
<path d="M 465.211,157.911 L 468.241,157.911 C 467.351,158.801 466.501,159.751 465.681,160.711 C 464.651,161.751 463.651,162.811 462.621,163.861 C 459.581,165.171 458.221,165.261 457.361,168.831 C 456.381,169.721 455.391,170.611 454.441,171.541 C 452.291,173.441 450.271,175.301 448.891,177.871 C 450.471,179.611 452.291,181.091 453.831,182.891 C 451.381,182.611 449.241,181.631 446.931,180.891 C 445.001,181.791 443.961,183.381 442.871,185.121 C 441.211,187.781 439.081,190.101 437.451,192.781 C 436.651,198.641 431.671,195.441 430.911,200.761 C 432.531,200.741 433.751,198.181 435.101,199.681 C 437.681,201.591 429.481,202.011 432.911,203.841 C 435.891,206.221 436.351,210.261 438.721,212.841 C 440.611,213.761 440.601,213.701 440.821,215.911 C 438.981,215.831 437.891,214.261 437.601,216.971 C 435.941,212.481 433.611,208.231 430.041,204.971 C 429.041,207.001 430.271,210.121 427.331,210.291 C 425.381,211.581 425.541,207.791 425.021,206.591 C 427.721,206.851 429.111,204.171 429.841,201.981 C 427.061,202.181 424.501,204.531 422.441,206.261 C 422.671,208.421 423.381,210.531 423.621,212.691 C 420.801,215.371 418.141,210.231 417.461,216.301 C 412.391,217.571 414.971,216.331 415.791,212.961 C 410.201,215.471 406.701,219.821 403.551,224.911 C 397.871,225.251 395.831,230.351 389.981,229.141 C 390.491,231.211 391.331,233.231 392.051,235.231 C 390.571,233.821 389.181,232.321 387.671,230.941 C 382.061,232.591 376.041,234.561 370.551,236.721 C 366.471,238.611 362.171,240.711 358.751,243.661 C 358.411,244.291 358.121,244.941 357.891,245.611 C 357.261,247.441 356.541,248.691 355.231,250.141 C 351.471,249.781 349.771,251.381 347.451,254.001 C 346.521,254.831 338.081,260.161 342.611,259.811 C 343.381,259.991 344.151,260.181 344.921,260.361 C 343.441,261.111 341.971,261.871 340.481,262.611 C 337.301,261.321 333.151,269.221 336.601,269.321 C 339.861,271.331 342.651,268.241 344.151,271.621 C 344.491,274.801 344.501,277.951 345.171,281.111 C 344.781,282.251 344.341,283.391 343.871,284.501 C 342.651,281.571 342.651,278.591 342.461,275.501 C 340.011,275.271 337.511,275.331 335.051,275.351 C 332.561,275.041 330.781,275.861 328.601,276.921 C 326.631,273.661 326.341,273.431 328.281,270.021 C 325.081,266.311 324.411,267.321 320.251,266.661 C 320.051,263.871 320.891,263.241 318.031,261.851 C 314.401,260.181 323.311,261.721 320.001,259.661 C 318.021,257.861 315.871,259.471 313.921,260.331 C 312.431,259.181 310.941,258.051 310.951,255.981 C 312.601,255.741 314.491,258.051 315.691,256.741 C 321.271,254.431 311.591,253.241 309.721,253.221 C 307.411,250.991 307.271,247.811 309.171,244.911 C 311.041,244.321 312.301,243.941 314.221,244.681 L 313.681,245.431 C 309.831,246.571 308.611,247.751 312.561,250.081 C 314.921,251.031 317.331,251.491 319.791,252.021 C 320.631,252.831 321.441,253.671 322.241,254.521 C 320.681,256.481 321.221,257.071 322.421,258.951 C 322.831,260.021 323.311,261.051 323.861,262.041 C 324.201,262.591 324.551,263.141 324.911,263.691 C 325.741,264.971 326.551,266.261 327.391,267.541 C 328.851,266.521 332.131,264.801 330.881,262.691 L 330.721,261.851 L 331.851,260.921 C 334.081,259.801 334.801,259.071 335.791,256.781 C 336.831,256.171 337.881,255.591 338.941,255.031 C 341.091,254.171 342.351,253.061 343.771,251.281 C 348.061,248.281 352.971,247.251 354.781,241.841 C 362.941,236.691 369.281,231.621 378.961,229.561 L 380.661,228.981 C 385.611,227.791 389.881,224.671 394.861,223.881 C 399.221,222.921 402.901,220.441 404.931,216.341 C 405.901,215.861 406.861,215.361 407.801,214.831 C 408.521,214.381 409.211,213.871 409.871,213.331 C 410.911,212.491 411.951,211.651 412.991,210.821 L 414.041,210.031 C 417.471,207.001 421.131,204.091 424.281,200.781 C 429.581,198.531 424.381,197.001 422.541,194.241 C 421.281,193.231 419.411,191.141 417.631,191.841 C 416.301,189.721 412.981,187.581 412.811,185.101 C 418.091,186.401 420.161,190.651 424.611,193.141 C 425.611,194.721 426.861,198.051 429.201,196.261 C 435.481,193.561 437.141,188.221 441.411,183.471 C 445.331,178.611 448.841,173.361 452.961,168.681 C 453.961,167.571 454.891,166.411 455.851,165.261 C 458.991,162.841 462.021,160.261 465.211,157.911 Z" fill="#2a2b11"/>
<path d="M 504.161,225.523 L 522.891,225.523 C 528.291,230.583 524.931,231.563 520.871,235.313 C 519.161,233.753 517.671,228.903 518.261,234.373 C 513.851,234.863 509.951,233.533 505.761,233.213 C 504.131,231.773 502.621,230.263 501.601,228.323 C 502.421,227.363 503.271,226.413 504.161,225.523 Z" fill="#688712"/>
<path d="M 617.903,221.009 L 642.043,221.009 C 639.803,222.219 638.733,224.929 640.613,226.859 C 642.083,227.979 647.053,231.279 644.833,226.849 C 643.963,221.719 648.093,226.309 650.613,226.429 C 646.163,227.949 648.643,227.679 651.113,229.349 C 648.343,234.189 654.953,229.989 656.313,229.089 C 655.853,232.409 655.883,231.249 658.833,231.429 C 657.793,233.139 655.843,234.239 654.433,235.659 C 650.403,235.079 653.403,244.349 656.703,243.689 C 657.193,245.229 657.523,246.789 657.773,248.389 C 654.673,249.429 652.603,243.359 651.333,241.339 C 650.323,242.409 649.403,243.579 648.503,244.739 C 645.363,243.919 646.213,244.029 645.483,247.099 C 641.443,244.229 637.053,242.329 633.323,239.019 C 638.423,235.719 639.303,241.189 643.543,238.889 C 642.193,236.299 639.993,235.719 642.163,232.719 C 641.833,230.749 633.613,230.809 635.933,234.819 C 637.933,237.789 633.603,236.939 631.813,237.879 C 630.793,237.329 629.753,236.799 628.713,236.289 C 633.623,235.789 625.563,234.369 626.963,231.289 C 628.833,230.249 629.303,229.309 629.893,227.319 C 627.843,227.709 625.973,227.809 624.493,229.479 C 621.773,229.979 619.673,230.459 617.503,232.289 C 616.933,231.819 616.383,231.329 615.883,230.799 C 619.943,227.049 623.303,226.069 617.903,221.009 Z" fill="#90b81a"/>
<path d="M 754.92,227.294 L 775.79,227.294 C 777.43,233.424 774.58,231.924 770.72,234.994 C 773.85,234.754 776.07,234.804 778.56,236.974 C 776.61,237.774 777.79,239.914 776.44,240.914 C 774.07,241.074 772.1,239.414 770.73,242.074 C 775.84,243.824 779.08,240.314 778.59,248.264 C 775.69,246.454 775.74,244.794 771.45,244.734 C 769.87,244.074 772.66,249.124 770.57,248.224 C 766.53,249.254 768.51,244.294 767.31,241.944 C 768.72,240.524 770.67,239.424 771.71,237.714 C 768.76,237.534 768.73,238.694 769.19,235.374 C 767.83,236.274 761.22,240.474 763.99,235.634 C 761.52,233.964 759.04,234.234 763.49,232.714 C 760.97,232.594 756.84,228.004 757.71,233.134 C 755.57,231.104 755.82,231.724 753.49,233.144 C 751.61,231.214 752.68,228.504 754.92,227.294 Z" fill="#b9dd29"/>
<path d="M 888.356,233.724 L 892.656,233.724 C 891.756,234.984 890.786,236.094 890.266,237.574 C 892.776,237.914 894.976,237.834 897.306,236.754 C 898.786,236.334 899.396,235.214 899.306,233.724 L 910.416,233.724 L 910.536,235.954 C 908.516,237.334 904.886,233.704 903.846,236.414 C 903.906,239.994 904.346,240.284 900.496,240.904 C 904.776,233.244 889.136,239.404 893.106,244.704 C 893.086,253.714 897.886,245.424 901.406,250.724 C 900.256,251.144 898.956,251.284 898.086,252.134 C 893.976,256.334 895.066,254.044 892.236,250.584 C 891.926,248.214 891.826,245.704 891.126,243.404 C 888.636,241.234 886.416,241.184 883.286,241.424 C 887.146,238.354 889.996,239.854 888.356,233.724 Z" fill="#96b426"/>
<path d="M 1022.7,242.813 L 1026.65,242.813 C 1026.8,243.833 1027.03,244.843 1027.35,245.843 C 1025.02,246.923 1022.82,247.003 1020.31,246.663 C 1020.83,245.183 1021.8,244.073 1022.7,242.813 Z" fill="#bce713"/>
<path d="M 1150.89,247.127 L 1153.59,247.127 C 1153.68,248.618 1153.07,249.738 1151.59,250.157 C 1151.27,249.157 1151.04,248.148 1150.89,247.127 Z" fill="#cbe791"/>
<path d="M 1265.26,249.151 L 1271.83,249.151 C 1273.85,249.801 1282.24,254.601 1279.41,249.151 L 1283.88,249.151 C 1285.77,250.611 1287.56,251.901 1289.95,252.441 C 1295.37,255.221 1292.14,256.261 1288.06,255.161 C 1285.46,254.511 1282.82,254.111 1280.19,253.631 C 1275.96,252.411 1269.68,250.211 1265.38,251.381 L 1265.26,249.151 Z" fill="#414719"/>
<path d="M 1404,254.38 L 1411.58,254.38 C 1414.41,259.83 1406.02,255.03 1404,254.38 Z" fill="#a9bb50"/>
<path d="M 1530.13,257.926 L 1544.86,257.926 C 1541.8,258.766 1539.02,259.776 1536.2,261.216 C 1533.81,260.676 1532.02,259.386 1530.13,257.926 Z" fill="#b6ce80"/>
<path d="M 1666.68,247.656 L 1671.89,247.656 C 1673.69,249.836 1676.23,250.036 1677.1,252.876 L 1677.35,253.686 C 1677.97,256.186 1679.9,257.896 1680.26,260.536 C 1672.83,265.536 1682.45,258.076 1676.46,257.636 C 1676.18,257.006 1674.11,255.346 1675.03,254.696 C 1677.54,251.546 1669.99,256.966 1671.78,252.576 C 1669.63,248.986 1670.32,255.696 1670.8,256.886 C 1669.21,256.206 1667.6,255.576 1666.03,254.876 C 1671.72,254.146 1663.67,248.776 1665.23,254.526 C 1662.81,253.736 1662.5,253.336 1660.95,255.656 C 1663.79,257.736 1667.13,259.146 1670.18,260.906 C 1671.76,262.586 1676.76,258.906 1673.95,262.686 C 1673.33,262.916 1672.71,263.146 1672.1,263.386 C 1670.66,263.046 1669.69,262.746 1668.36,263.616 C 1669.69,265.246 1671.2,265.426 1670.31,267.826 C 1663.1,267.016 1670.96,270.826 1672.16,272.836 C 1666.89,271.506 1670.6,276.956 1670.41,279.736 C 1669.77,280.056 1669.13,280.376 1668.49,280.686 C 1666.71,280.886 1665.18,280.396 1663.48,279.976 C 1657.22,281.646 1663.71,277.926 1660.53,275.336 C 1658.64,272.666 1661.81,269.756 1656.67,269.586 C 1656.58,271.726 1658.14,277.126 1655.76,272.266 C 1653.87,273.416 1647.86,274.966 1650.26,270.866 C 1651.96,268.636 1647.7,269.306 1646.7,269.796 C 1643.35,265.186 1644.04,263.966 1647.77,259.946 C 1648.57,263.166 1648.57,261.976 1651.3,261.576 L 1652.04,261.796 C 1651.22,264.846 1652.68,267.076 1653.25,270.056 C 1656.06,268.516 1658.94,269.556 1659.14,265.636 C 1661.45,265.876 1663.74,266.346 1666.05,266.456 C 1666.15,264.106 1663.03,261.796 1662.14,259.456 C 1660.32,260.806 1660.46,263.766 1659.14,265.636 C 1656.26,265.206 1655.06,266.696 1655.26,262.876 C 1656.75,262.196 1661.03,254.986 1656.45,256.746 C 1656.34,255.716 1656.23,254.696 1656.13,253.666 C 1660.21,254.766 1663.44,253.726 1658.02,250.946 C 1660.84,249.506 1663.62,248.496 1666.68,247.656 Z" fill="#81a31e"/>
<path d="M 1787.41,264.144 L 1795.07,264.144 C 1795.32,267.284 1797.18,269.274 1792.62,269.364 C 1791.76,266.524 1789.21,266.324 1787.41,264.144 Z" fill="#bcdb53"/>
<path d="M 1916.9,263.691 L 1921.41,263.691 C 1921.86,267.981 1921.53,269.321 1926.24,270.161 C 1928.46,275.391 1920.02,269.801 1922.22,273.111 C 1925.34,275.781 1918.56,276.011 1918.79,274.561 C 1919.47,271.031 1916.92,271.501 1914.7,269.721 L 1914.45,268.911 C 1919.01,268.821 1917.14,266.831 1916.9,263.691 Z" fill="#e9f3d0"/>
<path d="M 2045.08,265.113 L 2048.99,265.113 C 2049.88,266.353 2050.78,267.543 2051.95,268.543 C 2048.7,269.943 2053.95,271.213 2052.59,274.173 C 2051.83,276.443 2054.74,276.023 2056.1,276.963 C 2054.24,277.363 2053.53,277.083 2052.85,279.133 C 2052.15,278.103 2051.41,277.113 2050.6,276.163 C 2051.82,282.663 2044.35,277.423 2041.28,277.993 C 2040.92,275.353 2038.99,273.643 2038.37,271.143 C 2040.59,272.923 2043.14,272.453 2042.46,275.983 C 2042.23,277.433 2049.01,277.203 2045.89,274.533 C 2043.69,271.223 2052.13,276.813 2049.91,271.583 C 2045.2,270.743 2045.52,269.403 2045.08,265.113 Z" fill="#c9e672"/>
<path d="M 2173.16,275.386 L 2176.27,275.386 C 2177.06,276.426 2177.84,277.486 2178.64,278.516 C 2177.8,278.626 2176.96,278.726 2176.12,278.816 C 2174.95,277.816 2174.05,276.626 2173.16,275.386 Z" fill="#bfde1c"/>
<path d="M 2286.17,272.937 L 2289.03,272.937 C 2291.93,277.917 2295.85,276.967 2298.85,272.937 L 2300.4,272.937 C 2298.83,275.667 2296.59,278.747 2300.02,281.167 C 2302.33,282.267 2303.33,284.237 2305.24,285.677 C 2307.4,285.577 2306.18,280.357 2305.98,278.977 C 2306.1,277.597 2306.2,276.207 2306.3,274.807 L 2306.46,272.937 L 2310.21,272.937 C 2309.72,274.477 2309.34,276.027 2309.03,277.607 L 2308.84,278.597 C 2308.41,279.557 2307.2,289.867 2309.93,286.107 C 2311.21,284.537 2312.31,282.837 2313.38,281.117 C 2314.61,279.377 2315.89,277.687 2317.15,275.967 C 2317.94,274.947 2318.73,273.937 2319.55,272.937 L 2322.4,272.937 L 2321.34,274.067 C 2319.74,275.827 2318.52,277.927 2317.05,279.807 C 2314.96,281.527 2314.04,283.657 2313.05,286.107 C 2311.91,287.167 2310.7,288.097 2309.41,288.957 C 2306.3,286.387 2306.03,289.917 2304.57,291.997 C 2304.12,290.037 2303.36,288.487 2302.23,286.847 C 2301.62,285.657 2300.69,285.117 2299.49,284.617 C 2297.44,282.907 2294.77,279.587 2295.45,284.957 C 2295.16,286.297 2294.88,287.637 2294.69,288.987 C 2294.24,287.917 2293.8,286.837 2293.36,285.757 C 2293.32,284.477 2293.28,283.197 2293.22,281.907 C 2293.65,278.277 2290.87,277.927 2288.54,276.067 C 2287.74,275.037 2286.96,273.977 2286.17,272.937 Z" fill="#31351c"/>
<path d="M 2428.09,282.598 L 2437.91,282.598 C 2434.91,286.628 2430.99,287.578 2428.09,282.598 Z" fill="#a7a893"/>
<path d="M -2.6855,282.788 L 0.4345,282.788 C 0.1045,285.127 -0.2955,287.468 -0.5555,289.817 C 2.3745,288.538 -0.3655,282.658 3.2145,284.658 C 3.1145,286.058 3.0145,287.448 2.8945,288.828 C 1.7645,291.018 1.8445,293.158 2.1545,295.528 C 0.2445,294.088 -0.7555,292.118 -3.0655,291.018 C -6.4955,288.598 -4.2555,285.518 -2.6855,282.788 Z" fill="#d0d4c6"/>
<path d="M 127.466,289.207 L 130.406,289.207 L 130.246,291.077 C 126.666,289.077 129.406,294.957 126.476,296.237 C 126.736,293.887 127.136,291.547 127.466,289.207 Z" fill="#7d8365"/>
<path d="M 253.7,292.032 L 258,292.032 C 256.85,292.902 255.73,293.792 254.71,294.822 C 256.68,294.992 258.66,295.052 260.64,295.062 C 259.38,296.782 258.1,298.472 256.87,300.212 C 255.33,298.672 255.09,296.142 252.52,296.702 C 252.83,295.122 253.21,293.572 253.7,292.032 Z" fill="#bcd942"/>
<path d="M 383.276,297.215 L 388.316,297.215 C 387.496,298.215 386.706,299.225 385.916,300.245 C 383.936,300.235 381.956,300.175 379.986,300.005 C 381.006,298.975 382.126,298.085 383.276,297.215 Z" fill="#e7f4c1"/>
<path d="M 511.294,296.07 L 517.284,296.07 C 516.024,297.96 516.944,300.64 514.144,298.54 C 512.964,301.43 513.564,304.03 513.274,307.07 C 511.754,308.04 510.274,309.07 508.824,310.13 C 506.154,307.28 509.014,307.05 510.394,304.61 C 511.884,302.29 510.684,299.65 510.234,297.2 L 511.294,296.07 Z" fill="#f3f7eb"/>
<path d="M 640.503,301.676 L 644.473,301.676 L 644.813,303.546 C 642.273,306.506 641.213,313.616 636.493,312.676 C 636.783,309.636 636.183,307.036 637.363,304.146 C 640.163,306.246 639.243,303.566 640.503,301.676 Z" fill="#d6e4ba"/>
<path d="M 763.337,300.463 L 768.407,300.463 C 770.887,303.643 769.717,307.023 771.027,310.513 L 771.297,311.283 C 771.407,312.533 772.997,315.973 771.257,316.533 C 769.697,318.213 768.487,315.193 767.257,314.373 C 766.887,313.653 766.517,312.933 766.137,312.223 C 765.167,308.973 764.497,305.623 763.677,302.333 L 763.337,300.463 Z" fill="#3e3d1e"/>
<path d="M 893.41,309.623 L 900.51,309.623 C 897.31,312.332 896.72,315.743 896.03,319.673 C 894.72,316.183 895.89,312.803 893.41,309.623 Z" fill="#a8c251"/>
<path d="M 1025.25,310.111 L 1028.54,310.111 C 1027.3,311.891 1025.24,313.561 1024.63,315.671 C 1025.21,318.201 1025.46,322.681 1023.19,324.401 C 1022.65,323.101 1021.92,322.021 1021.04,320.931 L 1020.77,320.161 C 1021.46,316.231 1022.05,312.821 1025.25,310.111 Z" fill="#e8f2ce"/>
<path d="M 1149.81,310.676 L 1151.76,310.676 C 1151.92,313.046 1149.12,315.416 1152.1,316.716 C 1153.17,315.736 1154.16,314.666 1155.18,313.626 C 1161.99,314.216 1152.9,316.146 1159.57,317.576 C 1156.15,317.416 1155.43,319.386 1153.27,321.406 C 1151.66,320.726 1150.14,319.936 1148.41,319.586 C 1150.13,321.686 1151.36,323.676 1152.54,326.116 C 1154.83,325.306 1157.1,324.476 1159.42,323.766 C 1158.4,325.406 1157.39,327.056 1156.47,328.766 C 1152.75,326.206 1150.28,331.906 1148.19,334.066 C 1146.73,331.186 1145.11,328.156 1144.46,324.966 C 1146.73,323.246 1146.48,318.766 1145.9,316.236 C 1146.51,314.126 1148.57,312.456 1149.81,310.676 Z" fill="#b8cf6e"/>
<path d="M 1278.92,321.448 L 1280.6,321.448 C 1281.21,322.418 1281.79,323.398 1282.34,324.398 C 1281.32,325.438 1280.33,326.508 1279.26,327.488 C 1276.28,326.188 1279.08,323.818 1278.92,321.448 Z" fill="#e7f4a6"/>
<path d="M 1402.53,325.069 L 1414.81,325.069 C 1414.07,326.389 1413.33,327.699 1412.59,329.019 C 1407.54,323.739 1411.75,332.149 1408.66,331.969 C 1401.99,330.539 1411.08,328.609 1404.27,328.019 C 1403.72,327.019 1403.14,326.039 1402.53,325.069 Z" fill="#9ab03e"/>
<path d="M 1539.92,316.919 L 1544.63,316.919 C 1545.01,318.419 1546.01,319.409 1547.63,318.899 C 1545.25,320.159 1542.14,318.909 1543.09,322.559 C 1539.19,325.979 1537.85,332.309 1535.52,336.859 C 1534.38,339.169 1533.34,341.519 1532.31,343.869 C 1531.73,344.869 1531.16,345.869 1530.57,346.869 C 1529.59,346.449 1528.6,346.049 1527.6,345.669 L 1527.44,344.859 C 1528.79,341.639 1529.86,338.409 1530.67,335.009 C 1531.59,333.299 1532.6,331.649 1533.62,330.009 C 1535.71,327.009 1537.01,324.479 1537.7,320.869 C 1538.44,319.549 1539.18,318.239 1539.92,316.919 Z" fill="#45431f"/>
<path d="M 1662.75,333.805 L 1665.5,333.805 L 1665.75,335.785 C 1664.13,336.295 1663.13,335.305 1662.75,333.805 Z" fill="#dbe4b1"/>
<path d="M 1789.5,336.876 L 1795.07,336.876 C 1794.32,338.366 1794.74,339.596 1792.7,339.656 C 1791.72,339.386 1790.73,339.116 1789.75,338.856 L 1789.5,336.876 Z" fill="#a8c533"/>
<path d="M 1915.03,335.277 L 1917.75,335.277 C 1914.98,342.107 1920.32,338.707 1923.8,342.307 C 1927.56,344.667 1929.13,346.287 1930.62,350.547 C 1925.82,352.127 1928.74,348.047 1925.65,346.137 C 1923.35,343.997 1920.31,343.207 1917.39,342.257 C 1916.42,340.277 1906.55,340.677 1912.66,338.057 C 1914.7,337.997 1914.28,336.767 1915.03,335.277 Z" fill="#4d511f"/>
<path d="M 2043.69,342.383 L 2051.62,342.383 C 2051.24,343.473 2047.8,346.263 2050.8,345.923 C 2052.41,345.523 2049.84,348.833 2049.74,349.413 C 2046.26,345.813 2040.92,349.213 2043.69,342.383 Z" fill="#a0ad76"/>
<path d="M 2176.54,337.789 L 2192.54,337.789 C 2195.2,340.089 2195.1,342.709 2191.05,342.399 C 2188.5,343.089 2193.83,346.809 2190.42,347.779 C 2187.43,349.459 2188.54,351.099 2189.16,353.809 C 2186.69,353.989 2188.16,358.929 2186.35,360.759 L 2185.39,362.059 C 2183.95,360.889 2182.37,360.049 2180.68,359.299 C 2179.4,358.359 2178.15,357.389 2176.82,356.519 C 2175.24,355.449 2175.33,355.189 2173.63,356.139 C 2172.85,353.299 2172.77,354.289 2170.36,354.599 C 2169.67,354.059 2168.97,353.509 2168.28,352.959 C 2167.19,351.819 2165.28,345.389 2163.3,347.589 L 2162.51,347.819 C 2159.82,346.749 2158.02,345.539 2156.03,343.429 C 2155.08,339.779 2158.19,341.029 2160.57,339.769 C 2161.55,340.029 2162.54,340.299 2163.52,340.569 C 2157.41,343.189 2167.28,342.789 2168.25,344.769 C 2170.67,348.429 2174.55,355.029 2179.38,355.269 C 2183.02,354.539 2181.79,358.099 2185.01,359.689 C 2184.61,355.709 2187.46,352.269 2181.48,353.059 C 2179.99,348.799 2178.42,347.179 2174.66,344.819 C 2174.76,344.239 2177.33,340.929 2175.72,341.329 C 2172.72,341.669 2176.16,338.879 2176.54,337.789 Z" fill="#758a33"/>
<path d="M 2302.76,344.702 L 2305.98,344.702 C 2306.61,346.662 2304.98,351.782 2308.64,349.892 C 2307.31,352.782 2308.69,353.992 2309.58,356.652 C 2308.53,360.542 2306.62,356.472 2304.54,355.722 C 2302.7,357.242 2301.14,359.092 2299.38,360.722 C 2298.76,358.012 2297.65,356.372 2300.64,354.692 C 2304.05,353.722 2298.72,350.002 2301.27,349.312 C 2305.32,349.622 2305.42,347.002 2302.76,344.702 Z" fill="#abc071"/>
<path d="M 2426.39,352.632 L 2435.69,352.632 C 2435.89,355.552 2442.64,359.712 2435.88,357.632 C 2434.88,357.412 2433.92,357.302 2432.9,357.292 C 2431.57,357.182 2430.33,357.492 2429.05,357.822 C 2425.39,359.712 2427.02,354.592 2426.39,352.632 Z" fill="#8eb039"/>
</svg>
