<?xml version="1.0" encoding="UTF-8" standalone="no"?>
<!DOCTYPE svg PUBLIC "-//W3C//DTD SVG 1.1//EN" "http://www.w3.org/Graphics/SVG/1.1/DTD/svg11.dtd">
<svg xmlns="http://www.w3.org/2000/svg" version="1.1" viewBox="0 0 1280 1280" width="1280.0pt" height="1280.0pt">
<path d="M 0.955717,1.21238 L 3.70572,1.21238 L 3.95572,3.19238 C 2.33572,3.70238 1.33572,2.71238 0.955717,1.21238 Z" fill="#dbe4b1"/>
<path d="M 3.12944,0.934884 L 5.82944,0.934884 C 5.91944,2.42488 5.30944,3.54488 3.82944,3.96488 C 3.50944,2.96488 3.27944,1.95488 3.12944,0.934884 Z" fill="#cbe791"/>
<path d="M 5.19759,1.45338 L 9.15759,1.45338 C 8.13759,3.21338 6.09759,3.46338 5.19759,1.45338 Z" fill="#b6da31"/>
<path d="M 9.21124,0.402384 L 10.3812,0.402384 C 11.2712,3.64238 11.0312,3.15238 8.21124,4.66238 C 8.43124,3.20238 8.71124,1.79238 9.21124,0.402384 Z" fill="#a1b47a"/>
<path d="M 11.7282,1.07538 L 13.5082,1.07538 C 15.7882,3.90538 11.7682,3.90538 11.7282,1.07538 Z" fill="#dce787"/>
<path d="M 13.4338,0.393747 L 16.5438,0.393747 C 17.3338,1.43375 18.1138,2.49375 18.9138,3.52375 C 18.0738,3.63375 17.2338,3.73375 16.3938,3.82375 C 15.2238,2.82375 14.3238,1.63375 13.4338,0.393747 Z" fill="#bfde1c"/>
<path d="M 17.196,0.682939 L 22.766,0.682939 C 22.016,2.17294 22.436,3.40294 20.396,3.46294 C 19.416,3.19294 18.426,2.92294 17.446,2.66294 L 17.196,0.682939 Z" fill="#a8c533"/>
<path d="M 21.5687,0.803634 L 26.6287,0.803634 C 25.3187,1.86363 24.5187,4.46363 22.6287,4.06363 C 22.2887,2.97363 21.9287,1.88363 21.5687,0.803634 Z" fill="#76a331"/>
<path d="M 24.567,0.662384 L 30.987,0.662384 C 29.857,2.01238 28.777,3.43238 27.597,4.74238 C 26.517,3.45238 25.547,2.03238 24.567,0.662384 Z" fill="#cce441"/>
<path d="M 30.1354,0.220111 L 34.0854,0.220111 C 34.2354,1.24011 34.4654,2.25011 34.7854,3.25011 C 32.4554,4.33011 30.2554,4.41011 27.7454,4.07011 C 28.2654,2.59011 29.2354,1.48011 30.1354,0.220111 Z" fill="#bce713"/>
<path d="M 34.6716,-0.344435 L 36.3516,-0.344435 C 36.9616,0.625565 37.5416,1.60557 38.0916,2.60557 C 37.0716,3.64557 36.0816,4.71557 35.0116,5.69557 C 32.0316,4.39557 34.8316,2.02557 34.6716,-0.344435 Z" fill="#e7f4a6"/>
<path d="M 39.6308,0.621929 L 44.6708,0.621929 C 43.8508,1.62193 43.0608,2.63193 42.2708,3.65193 C 40.2908,3.64193 38.3108,3.58193 36.3408,3.41193 C 37.3608,2.38193 38.4808,1.49193 39.6308,0.621929 Z" fill="#e7f4c1"/>
<path d="M 44.3167,-0.00352551 L 45.7567,-0.00352551 C 47.2467,1.11647 49.5667,1.29647 48.5067,3.70647 C 46.1867,5.23647 43.4667,4.36647 40.8367,4.27647 C 41.9767,2.83647 43.1967,1.45647 44.3167,-0.00352551 Z" fill="#9ac712"/>
<path d="M 45.6359,0.328495 L 53.9759,0.328495 L 54.1459,2.00849 C 49.1059,0.508495 52.1659,2.31849 52.7659,5.21849 C 49.7259,4.37849 45.5859,4.44849 45.6359,0.328495 Z" fill="#879558"/>
<path d="M 54.2067,-0.18595 L 57.1467,-0.18595 L 56.9867,1.68405 C 53.4067,-0.31595 56.1467,5.56405 53.2167,6.84405 C 53.4767,4.49405 53.8767,2.15405 54.2067,-0.18595 Z" fill="#7d8365"/>
<path d="M 58.2363,0.513384 L 59.7063,0.513384 C 64.0663,4.84338 58.6363,4.65338 58.2363,0.513384 Z" fill="#bbd399"/>
<path d="M 62.5636,-0.960263 L 66.8636,-0.960263 C 65.7136,-0.0902635 64.5936,0.799737 63.5736,1.82974 C 65.5436,1.99974 67.5236,2.05974 69.5036,2.06974 C 68.2436,3.78974 66.9636,5.47974 65.7336,7.21974 C 64.1936,5.67974 63.9536,3.14974 61.3836,3.70974 C 61.6936,2.12974 62.0736,0.579737 62.5636,-0.960263 Z" fill="#bcd942"/>
<path d="M 66.3387,0.542768 L 68.1687,0.542768 C 69.0687,2.55277 71.1087,2.30277 72.1287,0.542768 L 74.3687,0.542768 C 74.0787,2.17277 73.7687,3.78277 73.1587,5.33277 C 70.2087,1.59277 67.6787,6.89277 65.7987,1.35277 L 66.3387,0.542768 Z" fill="#dff3c0"/>
<path d="M 77.6454,0.0586336 L 78.5854,0.0586336 C 79.2354,4.22863 72.9154,6.97863 71.0054,3.13863 C 72.8754,1.72863 75.6054,1.40863 77.6454,0.0586336 Z" fill="#c3e68c"/>
<path d="M 81.1418,-0.56595 L 86.1718,-0.56595 C 85.2818,3.51405 81.0818,3.08405 78.7418,6.48405 L 78.4618,4.51405 C 79.3618,2.82405 80.2918,1.14405 81.1418,-0.56595 Z" fill="#9ea76a"/>
<path d="M 85.3537,-0.830798 L 89.2037,-0.830798 C 89.4137,0.619202 92.5237,3.7092 89.8537,4.1192 C 87.7237,5.2192 85.5037,5.9092 83.5437,4.0592 C 83.9837,2.3892 84.6637,0.749202 85.3537,-0.830798 Z" fill="#64930a"/>
<path d="M 88.3541,-0.0488664 L 96.0141,-0.0488664 C 96.2541,3.09113 98.1241,5.08113 93.5641,5.17113 C 92.6941,2.33113 90.1541,2.13113 88.3541,-0.0488664 Z" fill="#bcdb53"/>
<path d="M 99.9725,-3.35762 L 101.153,-3.35762 C 101.283,-0.957616 97.9425,3.34238 101.603,3.99238 C 100.643,5.14238 99.7125,6.30238 98.7125,7.41238 C 97.5925,5.84238 96.1625,4.68238 94.7225,3.44238 C 97.8925,3.05238 97.6725,-1.27762 99.9725,-3.35762 Z" fill="#44560b"/>
<path d="M 104.981,-1.96171 L 105.871,-1.96171 C 106.371,0.268293 106.751,2.50829 107.061,4.77829 C 106.281,4.80829 102.501,7.71829 102.541,6.04829 C 103.111,3.29829 104.221,0.738293 104.981,-1.96171 Z" fill="#c0ce9d"/>
<path d="M 106.287,0.23405 L 111.267,0.23405 C 113.107,1.59405 114.917,2.99405 116.737,4.38405 C 115.057,5.85405 112.347,3.53405 110.547,3.02405 C 109.627,1.75405 109.047,1.33405 107.427,1.31405 L 106.287,0.23405 Z" fill="#4d632a"/>
<path d="M 113.327,0.405384 L 123.147,0.405384 C 120.147,4.43538 116.227,5.38538 113.327,0.405384 Z" fill="#a7a893"/>
<path d="M 118.661,0.592384 L 129.491,0.592384 C 127.891,2.12238 126.111,3.71238 124.131,4.74238 C 122.311,3.35238 120.501,1.95238 118.661,0.592384 Z" fill="#e0ebc1"/>
<path d="M 127.352,-1.37012 L 134.452,-1.37012 C 131.252,1.33988 130.662,4.74988 129.972,8.67988 C 128.662,5.18988 129.832,1.80988 127.352,-1.37012 Z" fill="#a8c251"/>
<path d="M 130.382,1.06363 L 143.042,1.06363 C 141.542,2.28363 140.272,3.00363 138.362,3.41363 C 135.432,3.13363 132.922,2.63363 130.382,1.06363 Z" fill="#2d311a"/>
<path d="M 141.79,0.18655 L 147.49,0.18655 C 148.2,1.03655 148.89,1.89655 149.56,2.77655 C 145.71,4.08655 141.88,3.28655 138.11,4.98655 L 136.85,4.20655 C 138.17,2.38655 139.86,1.26655 141.79,0.18655 Z" fill="#9fbd28"/>
<path d="M 147.061,-2.7332 L 155.581,-2.7332 C 155.161,-1.0632 154.741,0.606795 154.371,2.2968 C 150.041,1.0168 151.771,1.7768 152.111,5.0868 C 150.981,5.7568 150.011,6.4868 149.061,7.3968 C 144.091,5.4768 147.531,5.3068 150.041,4.0668 C 148.981,1.8068 147.711,-0.293205 147.061,-2.7332 Z" fill="#a6bb21"/>
<path d="M 152.165,-0.323331 L 164.445,-0.323331 C 163.705,0.996669 162.965,2.30667 162.225,3.62667 C 157.175,-1.65333 161.385,6.75667 158.295,6.57667 C 151.625,5.14667 160.715,3.21667 153.905,2.62667 C 153.355,1.62667 152.775,0.646669 152.165,-0.323331 Z" fill="#9ab03e"/>
<path d="M 160.975,0.675565 L 172.425,0.675565 C 170.495,1.75557 168.805,2.87557 167.485,4.69557 C 165.725,3.96557 163.965,3.23557 162.195,2.52557 C 161.785,1.90557 161.375,1.29557 160.975,0.675565 Z" fill="#c7d574"/>
<path d="M 169.948,-1.30887 L 172.968,-1.30887 C 173.548,0.131134 176.718,8.66113 173.328,7.42113 C 172.948,3.82113 172.258,1.55113 169.948,-1.30887 Z" fill="#d7e3a5"/>
<path d="M 176.384,0.987384 L 183.964,0.987384 C 186.794,6.43738 178.404,1.63738 176.384,0.987384 Z" fill="#a9bb50"/>
<path d="M 188.6,-2.11678 L 192.57,-2.11678 L 192.91,-0.246783 C 190.37,2.71322 189.31,9.82322 184.59,8.88322 C 184.88,5.84322 184.28,3.24322 185.46,0.353217 C 188.26,2.45322 187.34,-0.226783 188.6,-2.11678 Z" fill="#d6e4ba"/>
<path d="M 188.153,1.27961 L 201.193,1.27961 C 201.593,1.89961 202.003,2.50961 202.413,3.12961 C 196.173,0.259606 194.233,5.86961 189.103,2.35961 L 188.153,1.27961 Z" fill="#91a34e"/>
<path d="M 201.035,-3.00512 L 204.155,-3.00512 C 203.825,-0.665116 203.425,1.67488 203.165,4.02488 C 206.095,2.74488 203.355,-3.13512 206.935,-1.13512 C 206.835,0.264884 206.735,1.65488 206.615,3.03488 C 205.485,5.22488 205.565,7.36488 205.875,9.73488 C 203.965,8.29488 202.965,6.32488 200.655,5.22488 C 197.225,2.80488 199.465,-0.275116 201.035,-3.00512 Z" fill="#d0d4c6"/>
<path d="M 210.746,-2.77957 L 217.826,-2.77957 C 216.136,-1.49957 214.436,-0.269573 212.656,0.880427 C 213.836,1.51043 215.066,1.92043 216.276,2.49043 C 215.216,3.76043 213.976,4.77043 212.696,5.81043 C 210.796,6.48043 209.006,7.41043 207.146,8.22043 C 207.446,6.02043 207.656,4.55043 206.686,2.45043 C 208.116,2.41043 213.386,3.37043 209.956,0.670427 C 208.016,-0.389573 210.246,-1.45957 210.746,-2.77957 Z" fill="#66911d"/>
<path d="M 215.293,-1.00989 L 223.223,-1.00989 C 222.843,0.0801109 219.403,2.87011 222.403,2.53011 C 224.013,2.13011 221.443,5.44011 221.343,6.02011 C 217.863,2.42011 212.523,5.82011 215.293,-1.00989 Z" fill="#a0ad76"/>
<path d="M 223.664,-1.36716 L 225.424,-1.36716 C 226.404,0.00283813 227.374,1.42284 228.454,2.71284 C 229.634,1.40284 230.714,-0.0171619 231.844,-1.36716 L 234.024,-1.36716 C 233.174,0.342838 232.244,2.02284 231.344,3.71284 C 229.084,4.02284 227.794,4.08284 225.714,3.08284 C 225.964,4.97284 226.564,6.42284 225.394,8.18284 L 224.614,7.66284 C 223.904,4.79284 219.774,0.572838 223.664,-1.36716 Z" fill="#e1efc7"/>
<path d="M 228.222,-0.948172 L 238.172,-0.948172 C 239.342,0.461828 240.512,1.87183 241.692,3.27183 C 240.392,5.98183 238.542,4.64183 236.172,4.67183 C 237.542,4.34183 238.902,3.99183 240.262,3.62183 C 237.642,2.48183 234.912,2.37183 232.192,1.59183 C 230.932,1.30183 229.662,1.07183 228.382,0.901828 L 228.222,-0.948172 Z" fill="#6e7c48"/>
<path d="M 244.989,-4.48195 L 248.279,-4.48195 C 247.039,-2.70195 244.979,-1.03195 244.369,1.07805 C 244.949,3.60805 245.199,8.08805 242.929,9.80805 C 242.389,8.50805 241.659,7.42805 240.779,6.33805 L 240.509,5.56805 C 241.199,1.63805 241.789,-1.77195 244.989,-4.48195 Z" fill="#e8f2ce"/>
<path d="M 249.755,-0.758866 L 259.565,-0.758866 C 256.375,1.59113 253.345,4.17113 250.205,6.59113 C 246.545,5.94113 249.885,1.64113 249.755,-0.758866 Z" fill="#76951b"/>
<path d="M 255.869,-3.56706 L 256.709,-3.56706 C 259.019,-0.707061 259.709,1.56294 260.089,5.16294 C 263.479,6.40294 260.309,-2.12706 259.729,-3.56706 L 264.739,-3.56706 C 260.849,-1.62706 264.979,2.59294 265.689,5.46294 C 265.679,6.44294 265.649,7.43294 265.599,8.41294 C 263.929,7.55294 262.439,6.78294 260.509,6.93294 C 259.529,6.46294 258.569,5.95294 257.629,5.41294 C 257.399,2.40294 256.319,1.52294 254.279,-0.507061 C 254.779,-1.53706 255.309,-2.55706 255.869,-3.56706 Z" fill="#8c995c"/>
<path d="M 269.952,-1.32989 L 272.642,-1.32989 C 269.392,1.91011 268.482,6.90011 265.032,9.73011 C 264.572,5.91011 271.742,2.30011 265.272,1.02011 C 267.182,0.610111 268.452,-0.109889 269.952,-1.32989 Z" fill="#8d8f5c"/>
<path d="M 275.612,-5.59309 L 279.502,-5.59309 C 279.862,-4.51309 280.222,-3.42309 280.562,-2.33309 C 272.892,-1.12309 282.062,1.23691 280.432,5.40691 C 280.732,7.80691 279.082,8.30691 277.582,9.67691 C 276.402,9.62691 275.282,9.40691 274.122,9.20691 L 274.482,7.53691 C 275.682,4.66691 271.252,4.66691 272.902,1.85691 C 274.452,-1.07309 272.172,-3.80309 275.612,-5.59309 Z" fill="#e7ece2"/>
<path d="M 284.36,-4.12262 L 290.35,-4.12262 C 289.09,-2.23262 290.01,0.447384 287.21,-1.65262 C 286.03,1.23738 286.63,3.83738 286.34,6.87738 C 284.82,7.84738 283.34,8.87738 281.89,9.93738 C 279.22,7.08738 282.08,6.85738 283.46,4.41738 C 284.95,2.09738 283.75,-0.542616 283.3,-2.99262 L 284.36,-4.12262 Z" fill="#f3f7eb"/>
<path d="M 285.355,0.0115012 L 300.805,0.0115012 C 300.745,1.0515 300.695,2.0815 300.635,3.1215 C 297.715,3.9515 297.015,2.7915 294.805,1.2115 C 294.945,2.5615 295.125,3.9015 295.305,5.2315 C 292.995,2.7915 287.495,-1.8585 288.385,5.1415 C 287.015,3.5715 286.125,1.9415 285.355,0.0115012 Z" fill="#a2b393"/>
<path d="M 295.79,-0.536146 L 310.84,-0.536146 C 310.08,2.16385 308.97,4.72385 308.4,7.47385 C 307.87,6.16385 307.42,4.84385 306.84,3.56385 C 306.3,1.24385 298.02,-1.80615 300.66,2.16385 C 299.03,2.07385 297.51,2.15385 295.9,2.45385 C 295.86,1.45385 295.82,0.463854 295.79,-0.536146 Z" fill="#799e28"/>
<path d="M 305.507,0.933634 L 320.237,0.933634 C 317.177,1.77363 314.397,2.78363 311.577,4.22363 C 309.187,3.68363 307.397,2.39363 305.507,0.933634 Z" fill="#b6ce80"/>
<path d="M 319.303,-5.89044 L 322.523,-5.89044 C 323.153,-3.93044 321.523,1.18956 325.183,-0.700443 C 323.853,2.18956 325.233,3.39956 326.123,6.05956 C 325.073,9.94956 323.163,5.87956 321.083,5.12956 C 319.243,6.64956 317.683,8.49956 315.923,10.1296 C 315.303,7.41956 314.193,5.77956 317.183,4.09956 C 320.593,3.12956 315.263,-0.590443 317.813,-1.28044 C 321.863,-0.970443 321.963,-3.59044 319.303,-5.89044 Z" fill="#abc071"/>
<path d="M 324.776,-1.09574 L 327.006,-1.09574 C 327.406,3.04426 332.836,3.23426 328.476,-1.09574 L 331.496,-1.09574 C 332.266,0.834259 333.156,2.46426 334.526,4.03426 C 337.296,7.78426 332.646,4.87426 330.926,4.64426 C 327.996,3.26426 327.216,1.71426 324.776,4.90426 L 324.776,-1.09574 Z" fill="#66764f"/>
<path d="M 331.852,-3.57102 L 343.482,-3.57102 L 343.642,-1.72102 C 343.702,-0.531016 343.982,0.638984 344.452,1.79898 C 343.402,2.53898 341.152,3.05898 341.082,4.53898 C 338.092,8.19898 341.702,11.339 335.182,9.55898 C 336.052,8.74898 340.422,5.14898 336.782,5.42898 C 337.762,4.11898 339.472,3.72898 338.552,1.84898 C 339.942,0.678984 340.232,1.40898 341.722,1.94898 C 341.682,-3.37102 334.772,-1.79102 331.352,-1.42102 L 331.852,-3.57102 Z" fill="#97ae64"/>
<path d="M 343.952,0.236134 L 358.782,0.236134 C 355.772,3.58613 351.752,4.20613 347.472,4.45613 C 346.292,3.05613 345.122,1.64613 343.952,0.236134 Z" fill="#99b83a"/>
<path d="M 361.114,-4.70345 L 363.244,-4.70345 C 362.744,-3.38345 360.514,-2.31345 362.454,-1.25345 C 365.884,1.44655 360.614,0.48655 359.184,0.52655 C 360.154,2.62655 359.944,4.09655 359.644,6.29655 C 358.424,7.86655 357.574,9.51655 355.884,10.6566 L 354.134,10.5666 C 355.634,9.19655 357.284,8.69655 356.984,6.29655 C 358.614,2.12655 349.444,-0.23345 357.114,-1.44345 C 359.004,-1.04345 359.804,-3.64345 361.114,-4.70345 Z" fill="#a9c287"/>
<path d="M 366.039,-6.27976 L 369.949,-6.27976 C 370.839,-5.03976 371.739,-3.84976 372.909,-2.84976 C 369.659,-1.44976 374.909,-0.179759 373.549,2.78024 C 372.789,5.05024 375.699,4.63024 377.059,5.57024 C 375.199,5.97024 374.489,5.69024 373.809,7.74024 C 373.109,6.71024 372.369,5.72024 371.559,4.77024 C 372.779,11.2702 365.309,6.03024 362.239,6.60024 C 361.879,3.96024 359.949,2.25024 359.329,-0.249759 C 361.549,1.53024 364.099,1.06024 363.419,4.59024 C 363.189,6.04024 369.969,5.81024 366.849,3.14024 C 364.649,-0.169759 373.089,5.42024 370.869,0.190241 C 366.159,-0.649759 366.479,-1.98976 366.039,-6.27976 Z" fill="#c9e672"/>
<path d="M 375.713,-1.92012 L 383.623,-1.92012 C 385.383,-0.310116 387.113,1.32988 388.913,2.88988 C 383.213,8.27988 385.783,-0.430116 381.053,-0.680116 C 380.493,6.14988 380.153,7.57988 372.813,7.07988 C 372.113,5.53988 371.313,3.97988 370.793,2.35988 C 373.423,2.44988 376.143,3.31988 378.463,1.78988 C 379.523,-0.620116 377.203,-0.800116 375.713,-1.92012 Z" fill="#739114"/>
<path d="M 385.888,-4.10206 L 390.398,-4.10206 C 390.838,0.187939 390.518,1.52794 395.228,2.36794 C 397.448,7.59794 389.008,2.00794 391.208,5.31794 C 394.328,7.98794 387.548,8.21794 387.778,6.76794 C 388.458,3.23794 385.908,3.70794 383.688,1.92794 L 383.438,1.11794 C 387.998,1.02794 386.128,-0.962061 385.888,-4.10206 Z" fill="#e9f3d0"/>
<path d="M 389.904,-2.01512 L 397.644,-2.01512 C 397.594,2.10488 401.734,2.03488 404.774,2.87488 C 404.174,-0.0251164 401.114,-1.83512 406.154,-0.335116 C 406.444,1.91488 406.454,4.23488 406.234,6.48488 C 403.444,6.51488 401.944,7.65488 399.764,9.24488 C 396.844,6.61488 394.444,3.60488 391.974,0.574884 C 391.304,-0.305116 390.614,-1.16512 389.904,-2.01512 Z" fill="#4b522a"/>
<path d="M 404.718,-6.92998 L 409.788,-6.92998 C 412.268,-3.74998 411.098,-0.369985 412.408,3.12002 L 412.678,3.89002 C 412.788,5.14002 414.378,8.58002 412.638,9.14002 C 411.078,10.82 409.868,7.80002 408.638,6.98002 C 408.268,6.26002 407.898,5.54002 407.518,4.83002 C 406.548,1.58002 405.878,-1.76998 405.058,-5.05998 L 404.718,-6.92998 Z" fill="#3e3d1e"/>
<path d="M 420.239,-6.37503 L 425.329,-6.37503 C 421.889,-4.58503 424.169,-1.85503 422.619,1.07497 C 420.969,3.88497 425.399,3.88497 424.199,6.75497 C 422.179,7.60497 420.099,8.18497 417.989,8.75497 C 416.979,8.12497 415.969,7.48497 414.999,6.78497 C 417.019,6.72497 419.039,6.61497 421.049,6.40497 C 419.129,4.79497 417.369,3.84497 414.929,3.17497 C 415.299,2.37497 415.669,1.57497 416.059,0.77497 C 421.429,2.50497 419.629,1.15497 420.069,-3.26503 C 420.129,-4.30503 420.179,-5.33503 420.239,-6.37503 Z" fill="#91b13f"/>
<path d="M 425.206,-1.56047 L 434.506,-1.56047 C 434.706,1.35953 441.456,5.51953 434.696,3.43953 C 433.696,3.21953 432.736,3.10953 431.716,3.09953 C 430.386,2.98953 429.146,3.29953 427.866,3.62953 C 424.206,5.51953 425.836,0.399526 425.206,-1.56047 Z" fill="#8eb039"/>
<path d="M 447.466,-6.4297 L 450.226,-6.4297 L 449.686,-5.6197 C 448.806,-4.3497 447.906,-3.0997 447.076,-1.7997 C 446.186,-0.4397 445.466,1.0003 444.776,2.4603 C 443.906,6.9403 439.506,6.5303 439.086,10.3203 C 437.986,11.5703 436.396,10.7203 435.006,10.5903 C 435.316,9.3603 435.566,8.1203 435.786,6.8703 C 437.236,4.8103 438.736,2.7903 440.036,0.6203 C 442.376,-2.7797 446.576,-2.3497 447.466,-6.4297 Z" fill="#363d17"/>
<path d="M 454.17,-2.33791 L 460.78,-2.33791 C 459.66,-0.877911 458.44,0.502089 457.3,1.94209 C 457.82,3.56209 458.62,5.12209 459.32,6.66209 C 452.8,3.40209 445.69,10.4221 445.34,0.722089 C 449.36,0.362089 447.27,4.60209 452.2,3.72209 C 456.63,4.26209 456.05,0.132089 454.17,-2.33791 Z" fill="#c6da97"/>
<path d="M 470.317,-5.8874 L 476.067,-5.8874 C 475.317,-2.6574 476.897,-1.0274 472.597,-0.587399 C 473.537,1.7326 473.417,3.2826 472.927,5.7326 C 468.267,2.7626 467.487,5.2826 463.537,7.4726 C 461.437,5.9226 461.797,5.8226 460.817,8.3126 C 460.077,7.2526 459.357,6.1926 458.677,5.1026 C 459.447,3.9726 460.107,2.7926 460.847,1.6526 C 465.557,2.8126 466.977,-3.3974 470.317,-5.8874 Z" fill="#516c0e"/>
<path d="M 477.133,-4.92147 L 477.673,-4.92147 C 480.213,-3.35147 482.723,-2.85147 485.653,-2.57147 C 492.123,-1.29147 484.953,2.31853 485.413,6.13853 C 484.893,7.06853 484.383,7.99853 483.883,8.93853 C 482.463,8.58853 476.373,10.2685 478.023,7.34853 C 479.033,5.30853 481.883,6.56853 483.673,6.60853 C 481.653,3.66853 482.333,4.41853 484.553,2.04853 C 481.623,-0.231474 479.313,4.68853 476.993,1.89853 C 476.193,-0.431474 484.743,0.388526 480.043,-1.25147 C 477.933,-3.57147 471.243,1.93853 474.313,4.21853 C 471.953,3.86853 470.653,4.48853 470.223,1.63853 C 472.893,-0.211474 474.853,-2.63147 477.133,-4.92147 Z" fill="#d2e991"/>
<path d="M 488.343,-4.51562 L 491.063,-4.51562 C 488.293,2.31438 493.633,-1.08562 497.113,2.51438 C 500.873,4.87438 502.443,6.49438 503.933,10.7544 C 499.133,12.3344 502.053,8.25438 498.963,6.34438 C 496.663,4.20438 493.623,3.41438 490.703,2.46438 C 489.733,0.484384 479.863,0.884384 485.973,-1.73562 C 488.013,-1.79562 487.593,-3.02562 488.343,-4.51562 Z" fill="#4d511f"/>
<path d="M 505.949,-9.13119 L 516.019,-9.13119 C 513.959,-8.15119 509.039,-7.75119 510.219,-4.38119 L 508.749,-3.82119 C 511.299,-0.921188 514.529,0.318812 517.729,2.31881 C 515.089,4.03881 511.279,2.06881 515.799,6.10881 C 510.259,6.26881 512.249,5.24881 512.339,0.928812 C 508.739,1.74881 507.439,6.01881 503.279,6.93881 C 505.229,8.38881 507.389,9.06881 509.609,9.95881 C 511.009,11.7188 512.749,11.5588 509.829,12.9988 C 508.109,10.2088 502.409,7.32881 506.109,13.0588 C 501.819,12.8788 501.899,8.72881 500.519,5.65881 C 499.899,5.29881 499.269,4.94881 498.619,4.63881 C 499.929,0.658812 506.169,0.988812 506.119,-2.08119 C 506.919,-4.88119 502.209,-4.77119 501.719,-6.95119 C 503.029,-7.81119 504.529,-8.47119 505.949,-9.13119 Z" fill="#a5bb62"/>
<path d="M 519.499,-7.51656 L 521.449,-7.51656 C 521.609,-5.14656 518.809,-2.77656 521.789,-1.47656 C 522.859,-2.45656 523.849,-3.52656 524.869,-4.56656 C 531.679,-3.97656 522.589,-2.04656 529.259,-0.616564 C 525.839,-0.776564 525.119,1.19344 522.959,3.21344 C 521.349,2.53344 519.829,1.74344 518.099,1.39344 C 519.819,3.49344 521.049,5.48344 522.229,7.92344 C 524.519,7.11344 526.789,6.28344 529.109,5.57344 C 528.089,7.21344 527.079,8.86344 526.159,10.5734 C 522.439,8.01344 519.969,13.7134 517.879,15.8734 C 516.419,12.9934 514.799,9.96344 514.149,6.77344 C 516.419,5.05344 516.169,0.573436 515.589,-1.95656 C 516.199,-4.06656 518.259,-5.73656 519.499,-7.51656 Z" fill="#b8cf6e"/>
<path d="M 539.338,-8.28683 L 540.958,-8.28683 C 541.608,-5.84683 542.878,-3.74683 543.938,-1.48683 C 541.428,-0.246827 537.988,-0.0768269 542.958,1.84317 C 542.418,3.46317 540.858,4.50317 542.068,6.15317 C 542.888,7.68317 544.838,8.55317 546.128,9.67317 C 542.328,10.2832 540.838,8.64317 537.938,6.76317 C 537.498,7.89317 538.068,8.71317 536.458,8.58317 C 533.898,4.34317 526.138,3.66317 521.688,2.40317 C 521.758,1.90317 521.838,1.39317 521.928,0.893173 C 524.658,1.04317 528.798,1.48317 530.288,-1.30683 C 531.958,0.763173 538.268,9.44317 539.178,2.69317 C 537.618,1.28317 535.688,0.233173 533.908,-0.896827 C 540.868,0.853173 540.628,-2.79683 539.338,-8.28683 Z" fill="#626e20"/>
<path d="M 550.542,-3.6678 L 566.552,-3.6678 C 564.812,-2.8378 563.122,-2.2778 561.712,-0.927802 C 559.012,1.4722 554.532,0.742198 553.852,4.9222 C 556.782,7.8222 555.882,6.7922 552.632,7.3222 C 551.912,6.6122 551.212,5.9022 550.522,5.1722 L 550.052,4.4322 C 554.252,4.4522 549.452,2.4122 548.272,1.6422 C 546.772,2.4022 545.472,3.3722 544.132,4.3922 C 544.032,3.5922 543.952,2.7822 543.922,1.9722 C 546.172,0.142198 548.402,-1.7078 550.542,-3.6678 Z" fill="#70960f"/>
<path d="M 568.847,-7.78651 L 579.967,-7.78651 C 576.627,-5.29651 575.207,0.913495 570.497,-0.246505 C 569.757,0.893495 569.097,2.07349 568.327,3.20349 C 566.947,4.95349 564.837,7.09349 565.467,9.52349 L 565.557,10.3035 C 563.627,9.72349 558.287,11.6435 560.507,8.08349 C 562.987,2.70349 566.147,-2.47651 568.847,-7.78651 Z" fill="#88a724"/>
<path d="M 568.82,-0.64209 L 575.39,-0.64209 C 577.41,0.0079099 585.8,4.80791 582.97,-0.64209 L 587.44,-0.64209 C 589.33,0.81791 591.12,2.10791 593.51,2.64791 C 598.93,5.42791 595.7,6.46791 591.62,5.36791 C 589.02,4.71791 586.38,4.31791 583.75,3.83791 C 579.52,2.61791 573.24,0.41791 568.94,1.58791 L 568.82,-0.64209 Z" fill="#414719"/>
<path d="M 592.159,-5.26912 L 596.459,-5.26912 C 595.559,-4.00912 594.589,-2.89912 594.069,-1.41912 C 596.579,-1.07912 598.779,-1.15912 601.109,-2.23912 C 602.589,-2.65912 603.199,-3.77912 603.109,-5.26912 L 614.219,-5.26912 L 614.339,-3.03912 C 612.319,-1.65912 608.689,-5.28912 607.649,-2.57912 C 607.709,1.00088 608.149,1.29088 604.299,1.91088 C 608.579,-5.74912 592.939,0.410884 596.909,5.71088 C 596.889,14.7209 601.689,6.43088 605.209,11.7309 C 604.059,12.1509 602.759,12.2909 601.889,13.1409 C 597.779,17.3409 598.869,15.0509 596.039,11.5909 C 595.729,9.22088 595.629,6.71088 594.929,4.41088 C 592.439,2.24088 590.219,2.19088 587.089,2.43088 C 590.949,-0.639116 593.799,0.860884 592.159,-5.26912 Z" fill="#96b426"/>
<path d="M 608.255,-2.66968 L 626.985,-2.66968 C 632.385,2.39032 629.025,3.37032 624.965,7.12032 C 623.255,5.56032 621.765,0.710325 622.355,6.18032 C 617.945,6.67032 614.045,5.34032 609.855,5.02032 C 608.225,3.58032 606.715,2.07032 605.695,0.130325 C 606.515,-0.829675 607.365,-1.77968 608.255,-2.66968 Z" fill="#688712"/>
<path d="M 634.204,-9.16364 L 643.154,-9.16364 C 646.024,-6.21364 646.944,-6.95364 644.134,-3.24364 C 637.264,-6.92364 638.404,1.18636 640.184,4.95636 C 639.864,8.70636 634.444,4.77636 637.794,9.87636 C 634.994,10.9664 631.174,8.96636 628.354,9.80636 C 627.284,11.1364 627.514,13.8464 626.544,15.5364 C 625.444,15.1964 624.364,14.8064 623.294,14.4064 C 623.694,10.9664 623.454,9.81636 626.364,7.51636 C 623.764,4.21636 634.144,0.206358 627.954,-0.0236421 L 628.304,-2.22364 C 629.914,-3.25364 631.464,-3.91364 633.304,-4.42364 C 629.944,0.356358 631.874,-0.973642 635.994,0.376358 C 637.134,-3.80364 638.624,-4.07364 633.304,-4.42364 C 633.624,-6.00364 633.864,-7.59364 634.204,-9.16364 Z" fill="#4f6310"/>
<path d="M 653.725,-12.0738 L 658.435,-12.0738 C 658.815,-10.5738 659.815,-9.58383 661.435,-10.0938 C 659.055,-8.83383 655.945,-10.0838 656.895,-6.43383 C 652.995,-3.01383 651.655,3.31617 649.325,7.86617 C 648.185,10.1762 647.145,12.5262 646.115,14.8762 C 645.535,15.8762 644.965,16.8762 644.375,17.8762 C 643.395,17.4562 642.405,17.0562 641.405,16.6762 L 641.245,15.8662 C 642.595,12.6462 643.665,9.41617 644.475,6.01617 C 645.395,4.30617 646.405,2.65617 647.425,1.01617 C 649.515,-1.98383 650.815,-4.51383 651.505,-8.12383 C 652.245,-9.44383 652.985,-10.7538 653.725,-12.0738 Z" fill="#45431f"/>
<path d="M 654.497,-2.28713 L 657.127,-2.28713 L 658.267,-1.20713 C 657.667,2.18287 658.987,1.75287 661.387,0.502867 C 663.187,1.01287 665.897,3.33287 667.577,1.86287 C 669.557,0.832867 671.337,-0.757133 672.937,-2.28713 L 682.387,-2.28713 C 683.677,3.20287 683.917,6.85287 676.957,5.10287 C 674.587,4.50287 676.787,2.20287 676.897,0.632867 C 674.257,1.70287 673.197,1.31287 673.337,4.69287 C 671.847,7.48287 667.707,7.04287 664.977,6.89287 C 661.707,5.86287 658.897,7.34287 656.997,3.89287 C 654.947,2.01287 656.517,-0.387133 654.497,-2.28713 Z" fill="#acd317"/>
<path d="M 671.915,-8.09857 L 692.785,-8.09857 C 694.425,-1.96857 691.575,-3.46857 687.715,-0.398574 C 690.845,-0.638574 693.065,-0.588574 695.555,1.58143 C 693.605,2.38143 694.785,4.52143 693.435,5.52143 C 691.065,5.68143 689.095,4.02143 687.725,6.68143 C 692.835,8.43143 696.075,4.92143 695.585,12.8714 C 692.685,11.0614 692.735,9.40143 688.445,9.34143 C 686.865,8.68143 689.655,13.7314 687.565,12.8314 C 683.525,13.8614 685.505,8.90143 684.305,6.55143 C 685.715,5.13143 687.665,4.03143 688.705,2.32143 C 685.755,2.14143 685.725,3.30143 686.185,-0.0185739 C 684.825,0.881426 678.215,5.08143 680.985,0.241426 C 678.515,-1.42857 676.035,-1.15857 680.485,-2.67857 C 677.965,-2.79857 673.835,-7.38857 674.705,-2.25857 C 672.565,-4.28857 672.815,-3.66857 670.485,-2.24857 C 668.605,-4.17857 669.675,-6.88857 671.915,-8.09857 Z" fill="#b9dd29"/>
<path d="M 711.018,-2.99651 L 722.708,-2.99651 C 721.288,-2.33651 719.788,-1.67651 718.478,-0.816505 C 718.968,1.36349 723.678,1.25349 722.878,4.05349 C 720.748,2.77349 718.648,1.27349 716.348,0.343495 C 711.558,3.11349 707.228,0.703495 703.648,4.96349 C 702.528,4.63349 701.408,4.36349 700.268,4.17349 C 697.738,3.66349 695.398,3.35349 693.158,4.94349 C 692.138,4.99349 691.108,5.03349 690.088,5.07349 L 689.158,5.01349 C 689.588,4.33349 690.018,3.65349 690.448,2.98349 C 691.698,2.83349 692.938,2.69349 694.188,2.62349 C 696.558,2.59349 698.408,3.93349 699.708,1.22349 C 703.988,0.973495 708.008,0.353495 711.018,-2.99651 Z" fill="#2d3517"/>
<path d="M 706.535,-5.65559 L 709.395,-5.65559 C 712.295,-0.675589 716.215,-1.62559 719.215,-5.65559 L 720.765,-5.65559 C 719.195,-2.92559 716.955,0.154411 720.385,2.57441 C 722.695,3.67441 723.695,5.64441 725.605,7.08441 C 727.765,6.98441 726.545,1.76441 726.345,0.384411 C 726.465,-0.995589 726.565,-2.38559 726.665,-3.78559 L 726.825,-5.65559 L 730.575,-5.65559 C 730.085,-4.11559 729.705,-2.56559 729.395,-0.985589 L 729.205,0.00441061 C 728.775,0.964411 727.565,11.2744 730.295,7.51441 C 731.575,5.94441 732.675,4.24441 733.745,2.52441 C 734.975,0.784411 736.255,-0.905589 737.515,-2.62559 C 738.305,-3.64559 739.095,-4.65559 739.915,-5.65559 L 742.765,-5.65559 L 741.705,-4.52559 C 740.105,-2.76559 738.885,-0.665589 737.415,1.21441 C 735.325,2.93441 734.405,5.06441 733.415,7.51441 C 732.275,8.57441 731.065,9.50441 729.775,10.3644 C 726.665,7.79441 726.395,11.3244 724.935,13.4044 C 724.485,11.4444 723.725,9.89441 722.595,8.25441 C 721.985,7.06441 721.055,6.52441 719.855,6.02441 C 717.805,4.31441 715.135,0.994411 715.815,6.36441 C 715.525,7.70441 715.245,9.04441 715.055,10.3944 C 714.605,9.32441 714.165,8.24441 713.725,7.16441 C 713.685,5.88441 713.645,4.60441 713.585,3.31441 C 714.015,-0.315589 711.235,-0.665589 708.905,-2.52559 C 708.105,-3.55559 707.325,-4.61559 706.535,-5.65559 Z" fill="#31351c"/>
<path d="M 747.829,-12.9363 L 753.039,-12.9363 C 754.839,-10.7563 757.379,-10.5563 758.249,-7.71629 L 758.499,-6.90629 C 759.119,-4.40629 761.049,-2.69629 761.409,-0.0562861 C 753.979,4.94371 763.599,-2.51629 757.609,-2.95629 C 757.329,-3.58629 755.259,-5.24629 756.179,-5.89629 C 758.689,-9.04629 751.139,-3.62629 752.929,-8.01629 C 750.779,-11.6063 751.469,-4.89629 751.949,-3.70629 C 750.359,-4.38629 748.749,-5.01629 747.179,-5.71629 C 752.869,-6.44629 744.819,-11.8163 746.379,-6.06629 C 743.959,-6.85629 743.649,-7.25629 742.099,-4.93629 C 744.939,-2.85629 748.279,-1.44629 751.329,0.313714 C 752.909,1.99371 757.909,-1.68629 755.099,2.09371 C 754.479,2.32371 753.859,2.55371 753.249,2.79371 C 751.809,2.45371 750.839,2.15371 749.509,3.02371 C 750.839,4.65371 752.349,4.83371 751.459,7.23371 C 744.249,6.42371 752.109,10.2337 753.309,12.2437 C 748.039,10.9137 751.749,16.3637 751.559,19.1437 C 750.919,19.4637 750.279,19.7837 749.639,20.0937 C 747.859,20.2937 746.329,19.8037 744.629,19.3837 C 738.369,21.0537 744.859,17.3337 741.679,14.7437 C 739.789,12.0737 742.959,9.16371 737.819,8.99371 C 737.729,11.1337 739.289,16.5337 736.909,11.6737 C 735.019,12.8237 729.009,14.3737 731.409,10.2737 C 733.109,8.04371 728.849,8.71371 727.849,9.20371 C 724.499,4.59371 725.189,3.37371 728.919,-0.646286 C 729.719,2.57371 729.719,1.38371 732.449,0.983714 L 733.189,1.20371 C 732.369,4.25371 733.829,6.48371 734.399,9.46371 C 737.209,7.92371 740.089,8.96371 740.289,5.04371 C 742.599,5.28371 744.889,5.75371 747.199,5.86371 C 747.299,3.51371 744.179,1.20371 743.289,-1.13629 C 741.469,0.213714 741.609,3.17371 740.289,5.04371 C 737.409,4.61371 736.209,6.10371 736.409,2.28371 C 737.899,1.60371 742.179,-5.60629 737.599,-3.84629 C 737.489,-4.87629 737.379,-5.89629 737.279,-6.92629 C 741.359,-5.82629 744.589,-6.86629 739.169,-9.64629 C 741.989,-11.0863 744.769,-12.0963 747.829,-12.9363 Z" fill="#81a31e"/>
<path d="M 769.59,-17.7087 L 773.43,-17.7087 C 773.46,-16.7087 773.5,-15.7187 773.54,-14.7187 C 771.07,-11.8087 767.82,-10.9487 766.78,-6.96867 C 764.96,-3.45867 765.1,0.191331 765.41,4.02133 C 765.46,6.37133 766.04,8.45133 767,10.5813 C 767.7,12.3313 768.32,13.5513 770.07,14.4313 C 773.88,15.0813 768.2,20.7113 767.32,22.3013 C 766.65,20.9813 765.98,19.6713 765.29,18.3713 C 764.15,16.0113 762.97,13.6813 761.96,11.2613 C 761.71,10.5213 761.46,9.78133 761.22,9.04133 C 761.19,4.89133 761.94,0.051331 760.45,-3.84867 C 760.95,-4.78867 761.46,-5.71867 761.98,-6.64867 C 765.43,-9.47867 766.34,-14.4687 769.59,-17.7087 Z" fill="#3a3e24"/>
<path d="M 784.451,-18.4757 L 791.261,-18.4757 C 793.161,-10.6957 794.861,-3.67573 794.851,4.36427 C 793.981,7.48427 791.441,8.42427 796.391,7.90427 C 794.401,9.63427 793.811,10.6743 791.321,8.98427 C 790.481,12.0743 789.591,15.3843 788.111,18.2443 C 784.721,19.6143 783.891,19.8543 782.671,23.6243 L 782.231,22.8343 C 781.501,21.5443 780.801,20.2443 780.171,18.9043 C 785.721,18.9543 784.611,6.46427 786.131,4.10427 C 791.541,4.96427 786.811,2.21427 791.061,0.954272 C 789.991,-0.795728 788.151,-1.91573 787.081,-3.72573 C 788.711,-3.76573 789.961,-3.57573 791.481,-3.04573 C 792.021,-4.53573 792.821,-7.56573 791.661,-8.75573 C 787.901,-11.0657 791.711,-5.50573 787.461,-5.19573 C 786.721,-7.34573 786.181,-9.53573 785.641,-11.7357 C 785.331,-14.0057 784.951,-16.2457 784.451,-18.4757 Z" fill="#352c12"/>
<path d="M 810.054,-10.4665 L 828.934,-10.4665 C 828.594,-8.89652 828.354,-7.30652 828.034,-5.72652 C 826.194,-5.21652 824.644,-4.55652 823.034,-3.52652 C 818.804,-5.88652 818.964,-1.13652 822.684,-1.32652 C 828.874,-1.09652 818.494,2.91348 821.094,6.21348 C 818.184,8.51348 818.424,9.66348 818.024,13.1035 C 815.184,12.3635 812.424,11.4935 809.654,10.5035 C 813.204,9.21348 814.974,10.4035 814.894,5.90348 C 813.034,6.44348 811.214,7.12348 809.374,7.73348 L 809.054,6.67348 C 810.604,5.66348 812.194,4.69348 813.814,3.79348 C 817.084,4.68348 814.084,-0.856523 818.914,2.41348 C 820.644,-2.92652 808.354,-7.94652 811.354,0.00347733 C 810.574,2.22348 809.834,4.45348 809.054,6.67348 C 804.334,11.8935 808.104,3.10348 803.094,4.56348 C 800.454,5.33348 801.654,6.42348 801.994,8.39348 C 796.654,4.69348 795.774,8.26348 789.894,7.62348 L 789.804,6.84348 C 791.374,6.01348 794.784,5.96348 794.804,3.73348 C 795.784,1.24348 795.424,1.34348 797.524,2.89348 C 801.474,0.703477 802.254,-1.81652 806.914,1.15348 C 807.404,-1.29652 807.524,-2.84652 806.584,-5.16652 C 810.884,-5.60652 809.304,-7.23652 810.054,-10.4665 Z" fill="#779714"/>
<path d="M 834.183,-9.20402 L 850.183,-9.20402 C 852.843,-6.90402 852.743,-4.28402 848.693,-4.59402 C 846.143,-3.90402 851.473,-0.184023 848.063,0.785977 C 845.073,2.46598 846.183,4.10598 846.803,6.81598 C 844.333,6.99598 845.803,11.936 843.993,13.766 L 843.033,15.066 C 841.593,13.896 840.013,13.056 838.323,12.306 C 837.043,11.366 835.793,10.396 834.463,9.52598 C 832.883,8.45598 832.973,8.19598 831.273,9.14598 C 830.493,6.30598 830.413,7.29598 828.003,7.60598 C 827.313,7.06598 826.613,6.51598 825.923,5.96598 C 824.833,4.82598 822.923,-1.60402 820.943,0.595977 L 820.153,0.825977 C 817.463,-0.244023 815.663,-1.45402 813.673,-3.56402 C 812.723,-7.21402 815.833,-5.96402 818.213,-7.22402 C 819.193,-6.96402 820.183,-6.69402 821.163,-6.42402 C 815.053,-3.80402 824.923,-4.20402 825.893,-2.22402 C 828.313,1.43598 832.193,8.03598 837.023,8.27598 C 840.663,7.54598 839.433,11.106 842.653,12.696 C 842.253,8.71598 845.103,5.27598 839.123,6.06598 C 837.633,1.80598 836.063,0.185977 832.303,-2.17402 C 832.403,-2.75402 834.973,-6.06402 833.363,-5.66402 C 830.363,-5.32402 833.803,-8.11402 834.183,-9.20402 Z" fill="#758a33"/>
<path d="M 837.182,-10.7838 L 861.322,-10.7838 C 859.082,-9.57383 858.012,-6.86383 859.892,-4.93383 C 861.362,-3.81383 866.332,-0.513833 864.112,-4.94383 C 863.242,-10.0738 867.372,-5.48383 869.892,-5.36383 C 865.442,-3.84383 867.922,-4.11383 870.392,-2.44383 C 867.622,2.39617 874.232,-1.80383 875.592,-2.70383 C 875.132,0.616167 875.162,-0.543833 878.112,-0.363833 C 877.072,1.34617 875.122,2.44617 873.712,3.86617 C 869.682,3.28617 872.682,12.5562 875.982,11.8962 C 876.472,13.4362 876.802,14.9962 877.052,16.5962 C 873.952,17.6362 871.882,11.5662 870.612,9.54617 C 869.602,10.6162 868.682,11.7862 867.782,12.9462 C 864.642,12.1262 865.492,12.2362 864.762,15.3062 C 860.722,12.4362 856.332,10.5362 852.602,7.22617 C 857.702,3.92617 858.582,9.39617 862.822,7.09617 C 861.472,4.50617 859.272,3.92617 861.442,0.926167 C 861.112,-1.04383 852.892,-0.983833 855.212,3.02617 C 857.212,5.99617 852.882,5.14617 851.092,6.08617 C 850.072,5.53617 849.032,5.00617 847.992,4.49617 C 852.902,3.99617 844.842,2.57617 846.242,-0.503833 C 848.112,-1.54383 848.582,-2.48383 849.172,-4.47383 C 847.122,-4.08383 845.252,-3.98383 843.772,-2.31383 C 841.052,-1.81383 838.952,-1.33383 836.782,0.496167 C 836.212,0.0261674 835.662,-0.463833 835.162,-0.993833 C 839.222,-4.74383 842.582,-5.72383 837.182,-10.7838 Z" fill="#90b81a"/>
<path d="M 875.663,-15.1172 L 905.133,-15.1172 C 902.833,-13.0372 903.053,-8.70725 899.883,-8.31725 C 901.323,-7.07725 902.753,-5.91725 903.873,-4.34725 C 899.753,0.332754 896.243,5.58275 892.323,10.4428 C 888.053,15.1928 886.393,20.5328 880.113,23.2328 C 877.773,25.0228 876.523,21.6928 875.523,20.1128 C 879.213,22.2428 880.263,21.2328 883.553,19.0928 C 881.573,16.0728 883.073,13.2728 880.033,10.5928 L 879.663,9.94275 C 881.363,10.6028 882.963,11.2928 884.723,11.7628 C 885.243,8.44275 882.333,9.62275 882.523,7.61275 C 884.673,6.82275 886.243,4.44275 883.073,3.68275 C 882.313,3.15275 881.543,2.61275 880.763,2.08275 C 876.173,-1.43725 882.103,-1.37725 884.613,-2.29725 C 887.243,-1.20725 888.033,-4.68725 885.093,-4.04725 C 887.143,-6.74725 887.433,-11.2672 884.053,-13.0972 C 883.843,-11.1772 883.763,-9.24725 883.533,-7.33725 C 881.243,-7.96725 878.953,-8.60725 876.643,-9.19725 C 879.453,-12.9072 878.533,-12.1672 875.663,-15.1172 Z" fill="#708b1e"/>
<path d="M 898.225,-4.66595 L 904.995,-4.66595 C 905.035,-1.83595 909.055,-1.83595 906.775,-4.66595 L 916.685,-4.66595 C 918.565,-2.19595 919.145,1.93405 914.715,1.39405 C 909.785,2.27405 911.875,-1.96595 907.855,-1.60595 C 908.205,8.09405 915.315,1.07405 921.835,4.33405 C 929.175,4.83405 929.515,3.40405 930.075,-3.42595 C 934.805,-3.17595 932.235,5.53405 937.935,0.14405 C 938.585,0.64405 939.205,1.16405 939.815,1.70405 C 933.435,6.54405 924.015,5.88405 916.715,9.70405 C 916.155,7.92405 916.385,3.99405 913.405,5.97405 C 909.945,7.69405 908.675,10.8241 904.345,9.96405 C 904.025,7.97405 903.635,7.55405 902.055,6.32405 C 903.955,6.97405 905.705,5.63405 904.035,3.89405 C 902.665,1.91405 895.855,3.83405 893.455,3.55405 C 893.025,1.81405 893.365,-0.14595 893.385,-1.92595 C 894.795,-3.27595 896.485,-3.83595 898.225,-4.66595 Z" fill="#92ba18"/>
<path d="M 924.017,-14.0513 L 933.777,-14.0513 C 935.797,-12.1513 934.227,-9.75128 936.277,-7.87128 C 938.177,-4.42128 940.987,-5.90128 944.257,-4.87128 C 944.167,-4.37128 944.087,-3.86128 944.017,-3.36128 C 948.467,-2.10128 956.227,-1.42128 958.787,2.81872 C 957.037,3.03872 955.927,2.68872 954.397,1.90872 C 952.067,0.978717 946.747,-2.13128 946.417,2.28872 C 942.597,-0.00128308 939.337,-2.21128 934.647,-2.06128 C 936.907,1.15872 940.317,1.16872 942.077,4.79872 C 942.837,0.468717 943.867,3.13872 946.517,4.07872 C 948.297,10.5087 956.587,2.27872 958.917,11.0587 C 958.617,12.0487 958.277,13.0187 957.907,13.9787 C 956.077,11.9887 954.167,10.0087 952.077,8.29872 C 950.617,10.1987 950.147,13.1987 947.157,12.4087 C 944.357,11.8587 946.297,13.3087 946.567,14.7587 L 944.247,14.5987 C 944.507,13.1787 945.077,11.8887 945.707,10.5987 C 946.597,9.17872 945.717,5.29872 943.487,5.93872 C 938.557,4.96872 937.317,9.04872 933.387,11.2387 C 930.957,11.2687 929.857,3.03872 929.397,8.08872 C 926.257,6.09872 923.787,7.06872 926.487,2.83872 C 928.537,-0.241283 925.697,1.55872 923.797,1.18872 C 919.277,-2.85128 923.087,-0.881283 925.727,-2.60128 C 928.577,-2.58128 931.807,-0.351283 928.847,-4.53128 C 924.027,-3.85128 922.217,-7.41128 918.217,-9.30128 C 917.037,-12.6713 921.957,-13.0713 924.017,-14.0513 Z" fill="#88a821"/>
<path d="M 962.679,-6.93436 L 964.299,-6.93436 C 963.609,-5.35436 962.929,-3.71436 962.489,-2.04436 C 964.449,-0.194356 966.669,-0.884356 968.799,-1.98436 C 971.469,-2.39436 968.359,-5.48436 968.149,-6.93436 L 1000.74,-6.93436 C 998.599,-4.97436 996.369,-3.12436 994.119,-1.29436 C 992.629,-2.61436 992.549,-3.00436 990.559,-2.16436 C 987.769,-4.48436 986.749,-5.32436 983.109,-3.94436 C 979.739,-2.86436 980.569,-3.19436 981.699,-0.364356 C 976.379,1.81564 980.949,3.20564 983.359,4.95564 C 981.949,5.94564 980.469,6.92564 979.159,8.04564 C 979.979,9.66564 983.949,11.0956 980.019,11.5556 C 978.539,10.0156 978.069,8.16564 977.479,6.18564 C 975.609,6.22564 974.239,8.38564 972.439,8.75564 C 970.879,7.67564 969.769,6.31564 968.289,5.09564 C 966.419,6.55564 964.859,8.14564 962.589,9.00564 C 962.159,7.76564 962.649,4.75564 961.399,4.14564 C 961.219,6.34564 961.199,8.57564 961.129,10.7856 C 960.249,10.9156 959.379,11.0456 958.509,11.1756 C 960.369,6.63564 957.069,9.24564 954.399,8.73564 C 953.279,4.94564 961.259,5.59564 957.549,1.65564 C 958.829,0.615644 960.069,-0.394356 961.129,-1.66436 C 959.919,-2.23436 958.689,-2.64436 957.509,-3.27436 C 959.289,-4.42436 960.989,-5.65436 962.679,-6.93436 Z" fill="#99c818"/>
<path d="M 1021.89,-21.0581 L 1027.77,-21.0581 C 1027.66,-17.6981 1027.35,-14.5981 1026.19,-11.4281 C 1024.64,-7.89809 1027.35,-4.95809 1025.72,-1.49809 C 1022.77,-2.78809 1025.61,-5.73809 1021.77,-6.04809 C 1022.22,-2.98809 1022.12,-0.0480865 1024.44,2.26191 C 1023.61,5.54191 1023.01,8.97191 1021.79,12.1319 C 1019.42,9.63191 1015.69,11.3219 1013.3,12.8919 C 1011.03,11.4319 1009.49,10.5019 1006.64,11.0619 C 1006.31,13.5719 1008.78,12.9219 1010.43,13.6819 C 1010.42,17.1019 1009.33,17.3119 1006.36,17.7719 C 1004.23,18.5819 1003.85,21.1919 1002.32,18.1119 C 1000.47,14.8119 999.356,19.1019 998.196,20.4119 C 997.056,19.5119 996.026,16.0819 994.386,17.7519 C 993.396,15.8619 992.686,14.5119 990.656,13.5519 C 990.936,12.7319 991.236,11.9119 991.546,11.1019 C 994.766,10.7919 994.856,9.93191 995.496,7.04191 C 993.056,8.10191 991.366,7.82191 991.546,11.1019 C 987.866,5.38191 988.616,14.9219 988.526,17.0319 L 986.496,16.8419 C 986.206,14.9019 985.886,12.9819 985.256,11.1119 C 984.626,8.64191 983.586,6.40191 982.726,4.01191 C 983.276,2.67191 981.046,-0.248087 983.196,-0.128087 C 986.766,1.00191 986.306,1.84191 985.726,-2.04809 L 986.656,-2.19809 C 987.606,-1.36809 988.556,-0.528087 989.496,0.311913 C 990.906,2.77191 992.356,2.44191 988.666,3.44191 C 989.886,5.16191 991.786,4.32191 993.516,3.97191 C 995.716,3.29191 1000.4,2.19191 1000.97,5.45191 C 1002.62,3.94191 1004.29,3.57191 1006.31,2.78191 C 1006.43,-0.0080865 1001.73,1.82191 1000.1,1.68191 C 999.976,-0.768087 999.006,-1.50809 997.336,-3.14809 L 998.636,-4.03809 C 1000.03,-3.90809 1001.62,-3.05809 1002.72,-4.30809 C 1003.14,-8.09809 1007.54,-7.68809 1008.41,-12.1681 C 1008.92,-11.4981 1009.43,-10.8181 1009.92,-10.1381 C 1010.27,-6.19809 1003.68,-2.94809 1010.23,-0.878087 C 1013.39,1.29191 1020.54,-1.81809 1015.82,-4.91809 L 1014.65,-5.76809 C 1013.4,-7.41809 1014.04,-8.97809 1014.09,-10.8581 C 1014.36,-14.1881 1018.91,-11.6481 1021.11,-12.0381 C 1020.87,-13.5581 1020.11,-14.7981 1020.68,-16.2681 C 1021.29,-17.8181 1021.6,-19.4281 1021.89,-21.0581 Z" fill="#9ec81f"/>
<path d="M 1040.26,-31.707 L 1042.35,-31.707 L 1041.85,-29.557 L 1041.56,-28.607 C 1041.09,-27.347 1040.88,-26.167 1040.91,-24.827 C 1040.34,-22.327 1038.62,-18.807 1041.84,-17.457 C 1044.57,-16.757 1040.42,-14.037 1040.02,-12.607 C 1039.42,-11.407 1039.25,-10.157 1038.99,-8.85703 C 1037.35,-4.55703 1037.55,0.242972 1035.75,4.35297 C 1032.34,8.87297 1033.54,9.93297 1035.4,14.753 C 1038.04,14.103 1039.86,13.253 1041.96,11.523 C 1044.82,15.783 1045.26,17.713 1040.23,20.103 C 1039.28,17.783 1038.56,13.983 1036.09,18.143 C 1037.95,20.583 1039.85,23.043 1041.88,25.353 C 1042.35,25.983 1042.82,26.613 1043.29,27.253 C 1042.88,28.043 1042.47,28.833 1042.05,29.613 C 1041.05,28.863 1040.04,28.113 1039.05,27.343 C 1037.94,25.183 1036.72,23.113 1035.08,21.303 C 1033.52,19.463 1031.98,17.663 1030.85,15.513 L 1030.64,14.673 C 1029.46,11.843 1030.67,9.87297 1030.16,7.16297 C 1031.52,5.32297 1033.41,3.58297 1034.28,1.48297 C 1035.5,-1.67703 1036.1,-5.10703 1036.93,-8.38703 C 1037.37,-9.63703 1037.83,-10.877 1038.21,-12.147 C 1039.84,-15.607 1037.13,-18.547 1038.68,-22.077 C 1039.84,-25.247 1040.15,-28.347 1040.26,-31.707 Z" fill="#2c3214"/>
<path d="M 1047.59,-21.2607 L 1074.85,-21.2607 C 1072.81,-19.9107 1070.08,-19.5907 1068.21,-18.1807 C 1070.12,-14.3407 1076.44,-17.0907 1075.79,-21.2607 L 1087.74,-21.2607 C 1085.46,-18.9707 1083.5,-16.5507 1080.83,-14.7007 C 1081.26,-11.8507 1082.56,-12.4707 1084.92,-12.1207 C 1081.85,-14.4007 1088.54,-19.9107 1090.65,-17.5907 C 1095.35,-15.9507 1086.8,-16.7707 1087.6,-14.4407 C 1089.92,-11.6507 1092.23,-16.5707 1095.16,-14.2907 C 1092.94,-11.9207 1092.26,-12.6707 1094.28,-9.73073 C 1092.49,-9.77073 1089.64,-11.0307 1088.63,-8.99073 C 1086.98,-6.07073 1093.07,-7.75073 1094.49,-7.40073 C 1094.35,-4.13073 1094.43,-0.85073 1094.22,2.41927 C 1091.08,1.18927 1085.78,2.34927 1088.97,-2.39073 C 1087.23,-1.57073 1085.62,-0.65073 1084.25,0.71927 C 1086.03,3.95927 1088.53,7.45927 1092.14,8.73927 C 1093.86,12.5893 1090.13,11.8493 1090.33,15.7393 C 1090.34,18.6493 1089.03,16.6993 1087.27,16.4893 C 1083.99,16.2793 1080.79,9.01927 1079.13,12.5693 C 1077.48,13.8993 1075.56,15.1393 1074.18,16.7293 C 1075.98,19.2393 1076.15,19.7493 1079.25,18.7793 C 1076.74,21.6193 1081.32,27.9893 1076.31,26.2593 C 1076.39,27.6893 1076.74,29.0493 1077.18,30.4093 C 1075.71,30.3793 1073.18,27.9593 1072.61,29.9893 C 1071.9,32.1693 1069.09,30.4493 1067.47,30.4793 C 1065.62,26.8393 1063.9,27.7993 1060.36,27.9493 L 1059.68,27.6193 C 1059.68,25.1593 1059.55,22.8093 1058.56,20.5193 C 1057.57,17.9393 1055.37,15.7193 1053.57,13.6693 C 1052.25,12.0893 1050.66,10.8693 1048.95,9.75927 C 1050.43,8.65927 1051.99,7.67927 1053.49,6.61927 C 1050.88,5.29927 1048.55,2.43927 1045.66,4.50927 C 1045.77,2.76927 1046.18,1.19927 1045.63,-0.52073 C 1044.68,-4.12073 1043.54,-7.61073 1043.13,-11.3407 C 1044.61,-12.3207 1044.61,-13.4507 1044.48,-15.0707 C 1044.8,-15.7107 1045.11,-16.3607 1045.42,-17.0007 C 1048.24,-18.5107 1048.48,-18.0207 1047.59,-21.2607 Z" fill="#f4f9ed"/>
<path d="M 1081.88,-17.0614 L 1092.85,-17.0614 L 1093.8,-15.9814 C 1091.5,-12.2014 1097.89,-9.93145 1100,-7.76145 C 1103.61,-6.58145 1107.2,-5.00145 1110.84,-3.94145 C 1111.83,-3.65145 1112.81,-3.35145 1113.79,-3.05145 C 1112.65,3.41855 1114.09,1.70855 1119.55,3.15855 C 1116,6.95855 1120.94,4.39855 1122.95,6.83855 C 1126.36,10.1186 1127.64,12.9086 1132.82,13.0686 C 1135.85,15.8586 1137.05,18.1586 1140.93,20.1386 C 1139.78,25.7986 1137.65,21.4286 1135.57,19.3286 C 1131.28,20.5686 1129.29,15.4886 1129.88,22.1986 C 1129.04,20.7786 1128.17,19.2786 1127.11,18.0186 C 1125.22,15.8386 1123.22,13.7686 1121.15,11.7686 C 1118.33,8.80855 1115.02,6.88855 1111.54,4.81855 C 1109.59,3.27855 1107.43,2.53855 1105.07,1.89855 C 1104.48,1.58855 1103.9,1.27855 1103.31,0.96855 C 1101.95,0.15855 1100.57,-0.61145 1099.15,-1.33145 C 1096.33,-4.18145 1093.73,-7.12145 1090.46,-9.48145 C 1090.01,-9.91145 1089.54,-10.3114 1089.05,-10.6914 C 1088.44,-11.2314 1087.82,-11.7514 1087.17,-12.2514 C 1085.37,-13.8114 1083.64,-15.4514 1081.88,-17.0614 Z" fill="#1c1d0b"/>
<path d="M 1161.79,-20.1253 L 1168.72,-20.1253 C 1168.22,-18.7353 1167.94,-17.3253 1167.72,-15.8653 C 1167.41,-15.2253 1167.1,-14.5753 1166.78,-13.9353 C 1164.14,-13.3353 1164.87,-12.2353 1165.43,-10.2053 C 1164.2,-7.5653 1164.02,-6.8753 1165.07,-4.1753 C 1164.77,-0.365302 1160.05,1.0647 1163.39,3.9247 C 1158.57,7.6547 1162.37,10.1247 1165.65,12.7147 C 1167.13,16.6747 1167.63,20.6047 1170.55,23.8747 C 1170.38,25.9547 1176.15,30.5447 1173.21,31.2747 C 1169.6,30.0547 1169.59,28.4047 1169.93,33.2347 C 1168.93,34.5947 1167.78,35.5647 1167.38,37.2447 C 1166.86,37.4747 1166.33,37.6747 1165.79,37.8647 L 1164.97,36.7747 C 1164.56,32.8247 1161.27,35.9047 1164.32,31.8547 C 1159.62,27.9247 1162.35,23.4147 1159.16,19.3847 C 1157.23,15.6547 1155.58,18.6547 1152.55,19.1347 C 1151.96,12.4247 1153.95,17.5047 1158.24,16.2647 C 1160.32,18.3647 1162.45,22.7347 1163.6,17.0747 C 1159.72,15.0947 1158.52,12.7947 1155.49,10.0047 C 1150.31,9.8447 1149.03,7.0547 1145.62,3.7747 C 1146.64,3.4247 1147.66,3.0747 1148.67,2.7347 L 1150.31,2.9347 C 1151.99,4.5247 1152.86,6.3347 1155.55,5.7647 C 1155.74,3.3747 1153.54,2.6847 1151.96,1.4347 C 1149.28,-1.8353 1147.4,-6.9353 1142.71,-7.4053 C 1141.77,-7.6953 1140.83,-7.9753 1139.87,-8.2253 C 1141.63,-11.5353 1134.06,-13.5753 1132.05,-15.0553 C 1129.94,-16.2953 1127.07,-16.2853 1124.67,-16.6253 C 1120.62,-17.7153 1123.27,-12.8353 1122.67,-10.8253 C 1120.56,-12.9953 1114.17,-15.2653 1116.47,-19.0453 C 1121.6,-15.5353 1123.54,-21.1453 1129.78,-18.2753 C 1131.55,-17.5653 1133.31,-16.8353 1135.07,-16.1053 L 1136.33,-15.3253 C 1136.95,-14.9253 1137.57,-14.5353 1138.19,-14.1553 C 1143.38,-11.3153 1147.79,-8.7153 1152.05,-4.5253 C 1154.9,-2.7453 1154.74,-7.1953 1155.57,-8.8653 C 1157.75,-10.4553 1159.25,-11.5953 1162.04,-11.6253 C 1162.26,-13.8753 1162.25,-16.1953 1161.96,-18.4453 L 1161.79,-20.1253 Z" fill="#383a1c"/>
<path d="M 1235.46,-37.5706 L 1242.36,-37.5706 C 1239.66,-32.2606 1236.5,-27.0806 1234.02,-21.7006 C 1231.8,-18.1406 1237.14,-20.0606 1239.07,-19.4806 C 1244.95,-18.8406 1245.83,-22.4106 1251.17,-18.7106 C 1252.83,-18.2006 1254.51,-17.7106 1256.18,-17.2506 C 1257.06,-17.0106 1257.95,-16.8006 1258.83,-16.6006 C 1261.6,-15.6106 1264.36,-14.7406 1267.2,-14.0006 C 1268.27,-13.6006 1269.35,-13.2106 1270.45,-12.8706 C 1273.02,-12.1006 1273.08,-12.4906 1273.1,-9.67056 C 1265.71,-11.5006 1258.78,-15.1906 1251.29,-16.8106 C 1245.55,-18.3606 1234.5,-18.7206 1239.26,-9.42056 C 1238.59,-7.97056 1232.48,-3.81056 1235.05,-2.75056 L 1236.38,-1.49056 L 1235.26,-0.460558 C 1233.52,0.0494424 1232.93,0.669442 1232.06,2.21944 C 1230.41,2.62944 1229.07,3.21944 1227.65,4.15944 C 1225.85,5.10944 1223.92,6.02944 1222.23,7.16944 C 1216.96,9.93944 1214.72,14.5794 1210.58,18.4494 C 1210.17,18.7294 1209.76,19.0194 1209.36,19.3194 C 1204.85,22.7694 1200.4,26.4394 1196.21,30.2694 L 1195.12,31.2594 C 1193.62,32.2194 1192.16,33.1794 1190.91,34.4694 C 1189.98,35.3694 1189.04,36.2694 1188.07,37.1394 C 1185.53,39.3994 1182.53,41.5494 1180.65,44.3994 C 1180.16,45.0594 1179.67,45.7294 1179.19,46.3894 L 1177.96,47.6794 C 1173.83,45.4594 1180.92,39.0394 1182.97,37.2194 C 1183.63,36.4894 1185.63,35.6994 1185.04,34.5394 C 1179.9,35.1994 1175.57,41.6694 1171.85,44.9194 C 1166.52,41.6094 1169.47,41.9994 1171.1,37.4994 L 1171.41,36.8194 C 1172.07,36.1094 1172.73,35.3994 1173.4,34.7094 C 1178.68,32.5994 1182.21,28.2594 1187.74,26.8594 C 1189.47,26.2794 1190.37,24.9894 1191.47,23.6494 C 1192.45,22.6294 1193.44,21.6194 1194.44,20.6094 C 1200.36,19.4894 1205.57,12.8394 1209.26,8.36944 C 1213.03,6.42944 1213.8,4.23944 1215.15,0.359442 C 1216.9,-3.21056 1219.69,-6.08056 1221.56,-9.54056 C 1221.93,-10.5006 1222.27,-11.4706 1222.57,-12.4606 C 1223.67,-14.4906 1225.1,-16.3206 1226.15,-18.3706 C 1222.07,-18.8806 1218.07,-18.5206 1214.02,-18.0906 C 1214.78,-20.0406 1216.34,-20.6606 1218.05,-21.6106 C 1219.58,-20.8306 1220.69,-20.4806 1222.44,-20.7006 C 1224.05,-20.5706 1223.48,-21.3906 1223.92,-22.5206 C 1226.82,-20.6406 1228.31,-19.0006 1232.11,-19.6106 C 1230.82,-20.7306 1228.87,-21.6006 1228.05,-23.1306 C 1229.89,-24.7406 1231.1,-26.5406 1232.24,-28.6706 C 1233.88,-29.8306 1233.96,-30.6206 1234.25,-32.5406 C 1234.62,-34.2306 1235.04,-35.9006 1235.46,-37.5706 Z" fill="#1d1b0c"/>
<path d="M 192.242,39.9333 L 195.272,39.9333 C 194.382,40.8233 193.532,41.7733 192.712,42.7333 C 191.682,43.7733 190.682,44.8333 189.652,45.8833 C 186.612,47.1933 185.252,47.2833 184.392,50.8533 C 183.412,51.7433 182.422,52.6333 181.472,53.5633 C 179.322,55.4633 177.302,57.3233 175.922,59.8933 C 177.502,61.6333 179.322,63.1133 180.862,64.9133 C 178.412,64.6333 176.272,63.6533 173.962,62.9133 C 172.032,63.8133 170.992,65.4033 169.902,67.1433 C 168.242,69.8033 166.112,72.1233 164.482,74.8033 C 163.682,80.6633 158.702,77.4633 157.942,82.7833 C 159.562,82.7633 160.782,80.2033 162.132,81.7033 C 164.712,83.6133 156.512,84.0333 159.942,85.8633 C 162.922,88.2433 163.382,92.2833 165.752,94.8633 C 167.642,95.7833 167.632,95.7233 167.852,97.9333 C 166.012,97.8533 164.922,96.2833 164.632,98.9933 C 162.972,94.5033 160.642,90.2533 157.072,86.9933 C 156.072,89.0233 157.302,92.1433 154.362,92.3133 C 152.412,93.6033 152.572,89.8133 152.052,88.6133 C 154.752,88.8733 156.142,86.1933 156.872,84.0033 C 154.092,84.2033 151.532,86.5533 149.472,88.2833 C 149.702,90.4433 150.412,92.5533 150.652,94.7133 C 147.832,97.3933 145.172,92.2533 144.492,98.3233 C 139.422,99.5933 142.002,98.3533 142.822,94.9833 C 137.232,97.4933 133.732,101.843 130.582,106.933 C 124.902,107.273 122.862,112.373 117.012,111.163 C 117.522,113.233 118.362,115.253 119.082,117.253 C 117.602,115.843 116.212,114.343 114.702,112.963 C 109.092,114.613 103.072,116.583 97.5816,118.743 C 93.5016,120.633 89.2016,122.733 85.7816,125.683 C 85.4416,126.313 85.1516,126.963 84.9216,127.633 C 84.2916,129.463 83.5716,130.713 82.2616,132.163 C 78.5016,131.803 76.8016,133.403 74.4816,136.023 C 73.5516,136.853 65.1116,142.183 69.6416,141.833 C 70.4116,142.013 71.1816,142.203 71.9516,142.383 C 70.4716,143.133 69.0016,143.893 67.5116,144.633 C 64.3316,143.343 60.1816,151.243 63.6316,151.343 C 66.8916,153.353 69.6816,150.263 71.1816,153.643 C 71.5216,156.823 71.5316,159.973 72.2016,163.133 C 71.8116,164.273 71.3716,165.413 70.9016,166.523 C 69.6816,163.593 69.6816,160.613 69.4916,157.523 C 67.0416,157.293 64.5416,157.353 62.0816,157.373 C 59.5916,157.063 57.8116,157.883 55.6316,158.943 C 53.6616,155.683 53.3716,155.453 55.3116,152.043 C 52.1116,148.333 51.4416,149.343 47.2816,148.683 C 47.0816,145.893 47.9216,145.263 45.0616,143.873 C 41.4316,142.203 50.3416,143.743 47.0316,141.683 C 45.0516,139.883 42.9016,141.493 40.9516,142.353 C 39.4616,141.203 37.9716,140.073 37.9816,138.003 C 39.6316,137.763 41.5216,140.073 42.7216,138.763 C 48.3016,136.453 38.6216,135.263 36.7516,135.243 C 34.4416,133.013 34.3016,129.833 36.2016,126.933 C 38.0716,126.343 39.3316,125.963 41.2516,126.703 L 40.7116,127.453 C 36.8616,128.593 35.6416,129.773 39.5916,132.103 C 41.9516,133.053 44.3616,133.513 46.8216,134.043 C 47.6616,134.853 48.4716,135.693 49.2716,136.543 C 47.7116,138.503 48.2516,139.093 49.4516,140.973 C 49.8616,142.043 50.3416,143.073 50.8916,144.063 C 51.2316,144.613 51.5816,145.163 51.9416,145.713 C 52.7716,146.993 53.5816,148.283 54.4216,149.563 C 55.8816,148.543 59.1616,146.823 57.9116,144.713 L 57.7516,143.873 L 58.8816,142.943 C 61.1116,141.823 61.8316,141.093 62.8216,138.803 C 63.8616,138.193 64.9116,137.613 65.9716,137.053 C 68.1216,136.193 69.3816,135.083 70.8016,133.303 C 75.0916,130.303 80.0016,129.273 81.8116,123.863 C 89.9716,118.713 96.3116,113.643 105.992,111.583 L 107.692,111.003 C 112.642,109.813 116.912,106.693 121.892,105.903 C 126.252,104.943 129.932,102.463 131.962,98.3633 C 132.932,97.8833 133.892,97.3833 134.832,96.8533 C 135.552,96.4033 136.242,95.8933 136.902,95.3533 C 137.942,94.5133 138.982,93.6733 140.022,92.8433 L 141.072,92.0533 C 144.502,89.0233 148.162,86.1133 151.312,82.8033 C 156.612,80.5533 151.412,79.0233 149.572,76.2633 C 148.312,75.2533 146.442,73.1633 144.662,73.8633 C 143.332,71.7433 140.012,69.6033 139.842,67.1233 C 145.122,68.4233 147.192,72.6733 151.642,75.1633 C 152.642,76.7433 153.892,80.0733 156.232,78.2833 C 162.512,75.5833 164.172,70.2433 168.442,65.4933 C 172.362,60.6333 175.872,55.3833 179.992,50.7033 C 180.992,49.5933 181.922,48.4333 182.882,47.2833 C 186.022,44.8633 189.052,42.2833 192.242,39.9333 Z" fill="#2a2b11"/>
<path d="M 185.455,-19.736 L 217.875,-19.736 C 217.315,-18.726 216.785,-17.706 216.285,-16.676 C 215.485,-14.496 215.175,-12.136 214.605,-9.896 C 214.245,-9.206 213.885,-8.506 213.545,-7.806 C 212.115,-3.836 209.385,0.703996 209.705,4.984 C 210.715,5.174 211.735,5.334 212.755,5.464 C 209.095,11.664 211.785,17.874 206.675,22.944 C 205.285,25.974 202.405,28.864 201.935,32.154 C 201.785,33.624 201.385,34.984 200.895,36.364 C 200.025,38.644 199.445,41.014 198.675,43.324 C 195.795,45.814 195.585,48.944 194.295,52.294 C 192.775,55.004 194.795,57.864 193.465,60.384 C 192.355,61.444 191.315,62.534 190.565,63.884 C 186.155,69.704 191.465,74.634 195.635,78.454 L 195.605,80.144 C 195.895,82.294 194.595,83.394 197.435,82.564 C 197.865,83.444 198.305,84.314 198.775,85.184 C 200.825,88.204 200.755,91.714 203.585,86.324 C 207.885,89.344 211.435,88.144 214.745,84.474 L 215.595,84.374 C 221.585,84.764 223.765,78.304 229.555,76.444 C 227.465,76.174 219.495,79.014 224.585,75.164 C 226.305,74.754 228.005,74.334 229.635,73.614 C 234.165,72.414 232.215,68.654 232.355,65.154 C 235.015,66.644 238.315,64.614 241.255,64.274 C 236.785,60.164 244.545,60.874 246.775,59.394 C 248.325,58.034 253.455,56.864 251.125,54.304 C 254.015,53.114 260.285,54.984 259.655,50.284 C 261.995,49.644 264.285,48.864 266.565,48.064 C 272.765,49.884 275.745,59.164 282.615,58.324 C 285.015,57.854 288.655,62.654 285.925,64.364 C 288.855,63.724 291.555,63.594 293.675,61.194 C 294.865,63.934 297.655,65.974 300.255,67.304 C 300.175,65.944 300.015,64.604 299.915,63.254 C 301.005,64.514 301.945,65.884 302.875,67.264 C 300.975,70.164 301.115,73.344 303.425,75.574 C 305.295,75.594 314.975,76.784 309.395,79.094 C 308.195,80.404 306.305,78.094 304.655,78.334 C 304.645,80.404 306.135,81.534 307.625,82.684 C 309.575,81.824 311.725,80.214 313.705,82.014 C 317.015,84.074 308.105,82.534 311.735,84.204 C 314.595,85.594 313.755,86.224 313.955,89.014 C 318.115,89.674 318.785,88.664 321.985,92.374 C 320.045,95.784 320.335,96.014 322.305,99.274 L 322.505,99.894 C 319.835,101.824 323.545,107.274 324.645,109.454 C 322.325,112.764 326.775,122.504 328.625,114.854 C 329.415,117.884 327.765,120.034 327.465,122.974 C 329.605,122.314 330.325,120.274 331.905,122.954 C 331.875,125.174 333.065,126.124 334.815,124.424 L 336.405,124.284 C 338.375,124.984 340.345,125.674 342.265,126.534 C 343.215,127.934 345.215,127.674 346.755,128.144 C 348.985,130.494 348.995,132.964 352.785,131.224 C 359.475,132.314 365.125,130.174 371.625,129.414 C 370.125,130.434 368.475,131.054 366.805,131.744 C 369.155,133.754 369.825,136.224 373.025,133.784 C 377.575,132.514 378.325,141.374 376.835,144.284 L 376.785,145.154 C 375.715,145.604 374.615,146.024 373.505,146.404 C 372.485,146.404 371.465,146.394 370.445,146.394 C 369.525,146.034 368.595,145.674 367.675,145.334 C 365.495,144.154 363.815,144.774 361.645,145.604 C 359.065,147.454 356.475,148.964 353.465,150.034 C 352.345,150.134 351.225,150.234 350.105,150.334 C 349.305,149.064 349.125,147.854 347.475,147.504 L 345.725,146.914 C 344.295,145.864 343.255,145.894 341.585,146.334 L 340.795,146.374 C 335.975,145.404 337.535,149.514 338.235,152.464 C 339.075,155.364 340.765,156.354 338.505,159.064 C 336.745,162.714 337.395,168.344 338.255,172.244 L 338.405,172.864 C 336.975,175.104 336.175,177.564 335.205,180.014 C 331.585,176.994 327.775,173.724 334.525,171.444 C 332.025,166.114 332.015,172.864 329.135,171.324 C 330.255,163.744 331.435,156.754 330.455,149.044 C 334.815,144.204 328.075,145.764 329.705,140.914 C 322.065,137.014 315.775,132.524 311.065,125.254 C 310.715,118.934 309.575,112.894 310.495,106.544 C 302.765,105.324 311.605,116.854 306.765,114.264 C 306.595,113.214 306.415,112.154 306.225,111.094 C 305.555,107.434 303.345,105.304 304.365,101.344 C 302.165,103.524 302.405,107.114 298.765,104.664 C 298.875,107.044 300.165,108.044 297.165,106.174 L 297.295,105.304 C 298.375,103.804 300.255,98.184 302.695,100.764 C 303.015,98.944 302.355,95.734 300.995,94.464 C 295.825,91.624 295.185,86.664 288.995,84.994 C 286.965,83.754 284.875,82.614 282.775,81.504 C 280.025,80.064 277.775,78.384 274.515,79.064 C 273.305,78.394 272.105,77.704 270.885,77.044 C 269.545,76.284 268.215,75.554 266.775,75.024 C 263.655,73.744 259.705,74.264 256.405,74.384 C 253.795,74.584 251.075,75.094 248.585,75.894 C 246.185,77.234 244.165,79.044 242.335,81.064 C 240.955,82.474 239.665,83.954 238.345,85.414 C 231.445,89.764 242.255,91.414 245.715,91.014 C 246.595,93.354 246.325,94.774 245.585,97.084 C 243.945,97.334 242.295,97.544 240.645,97.784 C 239.335,97.524 238.025,97.244 236.725,96.954 C 232.445,95.324 229.845,90.734 226.435,96.344 C 224.505,98.744 221.885,101.254 221.445,104.404 C 220.975,107.814 224.085,109.194 223.925,112.344 C 223.735,114.324 225.145,114.404 226.425,115.424 C 224.205,120.604 229.705,126.214 232.995,129.684 C 226.865,130.814 231.145,136.084 233.455,139.414 C 235.535,142.934 240.155,137.814 236.915,143.084 C 241.825,144.574 239.035,150.434 244.015,153.424 C 245.125,148.764 242.465,148.434 241.375,144.564 C 243.185,146.024 245.125,147.194 247.095,148.424 C 246.405,150.334 245.745,151.154 246.785,153.164 C 247.675,152.194 248.415,151.114 249.225,150.074 C 249.445,151.124 249.675,152.174 249.925,153.214 C 247.405,157.454 246.965,159.654 252.455,160.834 C 254.345,162.154 260.065,172.064 253.405,167.634 C 256.005,171.224 258.455,174.054 258.445,178.804 C 262.495,175.524 262.555,182.594 264.625,184.704 C 262.715,185.014 260.435,183.494 262.525,186.364 C 264.755,188.584 263.575,190.844 264.905,193.004 C 265.965,190.164 267.865,190.764 270.325,189.904 C 270.955,187.574 265.435,179.864 270.855,182.044 C 274.105,186.054 274.605,189.394 275.315,194.364 C 275.235,196.654 274.045,198.254 273.185,200.324 C 271.005,203.714 268.165,206.444 265.345,209.274 C 260.425,212.874 259.845,218.064 255.615,221.894 C 253.455,221.734 252.215,221.964 250.285,222.964 C 249.305,223.364 248.325,223.774 247.355,224.184 C 243.885,224.474 241.065,223.144 237.915,221.984 L 237.125,221.604 C 238.815,220.524 246.315,217.254 239.825,217.564 C 237.385,215.214 237.275,208.004 236.215,204.394 C 239.165,202.404 239.195,199.654 243.135,199.324 C 241.075,196.504 244.275,194.264 242.035,190.864 C 238.735,188.944 235.855,186.914 232.995,184.374 C 229.875,181.854 227.065,179.794 225.395,175.984 L 224.735,174.614 L 224.475,173.874 C 222.955,169.964 221.515,165.334 218.625,162.214 C 216.475,159.724 213.035,160.364 212.665,156.704 C 208.195,154.854 203.875,147.874 199.495,152.114 C 197.715,149.684 196.465,146.574 194.285,144.494 L 193.675,144.014 C 192.405,139.414 192.895,135.014 193.685,130.384 C 194.055,128.334 194.335,124.974 192.625,123.464 L 191.995,122.804 C 191.445,122.024 190.905,121.234 190.365,120.444 C 189.835,117.784 191.115,115.634 187.515,115.234 L 186.755,115.004 C 179.435,112.724 171.265,108.574 166.845,102.094 C 166.425,101.564 166.005,101.024 165.595,100.474 C 164.045,95.124 162.305,92.704 158.045,89.194 C 157.565,88.554 157.095,87.914 156.605,87.274 C 156.235,86.184 155.865,85.104 155.505,84.014 L 155.315,82.594 C 162.585,84.364 156.005,76.854 157.215,73.274 C 161.285,75.734 158.505,68.394 162.255,68.144 C 166.865,67.804 167.795,62.104 165.695,58.774 C 171.615,60.244 168.385,55.714 171.525,52.424 C 172.325,51.454 170.685,50.634 171.325,49.794 C 175.185,44.344 171.745,36.074 172.345,29.704 C 174.995,27.404 176.205,25.934 176.865,22.364 C 178.085,18.594 178.915,18.354 182.305,16.984 C 183.785,14.124 184.675,10.814 185.515,7.724 C 188.005,9.414 188.595,8.374 190.585,6.644 C 185.635,7.164 188.175,6.224 189.045,3.104 C 189.055,-4.936 187.355,-11.956 185.455,-19.736 Z" fill="#0d0704"/>
</svg>
